<?xml version="1.0" encoding="utf-8"?>
<!-- Generator: Adobe Illustrator 16.0.0, SVG Export Plug-In . SVG Version: 6.00 Build 0)  -->
<!DOCTYPE svg PUBLIC "-//W3C//DTD SVG 1.1//EN" "http://www.w3.org/Graphics/SVG/1.1/DTD/svg11.dtd">
<svg version="1.1" id="Layer_1" xmlns="http://www.w3.org/2000/svg" xmlns:xlink="http://www.w3.org/1999/xlink" x="0px" y="0px"
	 width="1280px" height="1280px" viewBox="0 0 1280 1280" enable-background="new 0 0 1280 1280" xml:space="preserve">
<g>
	<linearGradient id="SVGID_1_" gradientUnits="userSpaceOnUse" x1="516.7261" y1="50.0327" x2="763.2129" y2="50.0327">
		<stop  offset="0" style="stop-color:#535A57"/>
		<stop  offset="1" style="stop-color:#2D2E2E"/>
	</linearGradient>
	<path fill="url(#SVGID_1_)" d="M763.213,89.718V28.386c-70.313-24.052-176.173-24.052-246.487,0v61.332H763.213z"/>
	
		<radialGradient id="SVGID_2_" cx="712.1533" cy="-3435.1206" r="353.3956" gradientTransform="matrix(0.9955 0 0 2.2823 1.9092 8491.3369)" gradientUnits="userSpaceOnUse">
		<stop  offset="0" style="stop-color:#F7F8F8"/>
		<stop  offset="1" style="stop-color:#A9ACAB"/>
	</radialGradient>
	<path fill="url(#SVGID_2_)" d="M401.383,642.85c0.402-36.963-11.289-149.949-9.543-263.182h-15.606
		c-1.443,116.626,10.865,232.327,10.432,270.398c-1.99,175.734,1.587,311.727,8.467,407.749h16.524
		C403.811,964.641,399.357,826.168,401.383,642.85z"/>
	
		<radialGradient id="SVGID_3_" cx="569.6836" cy="-3435.1206" r="357.9371" gradientTransform="matrix(0.9955 0 0 2.2823 1.9092 8491.3369)" gradientUnits="userSpaceOnUse">
		<stop  offset="0" style="stop-color:#F7F8F8"/>
		<stop  offset="1" style="stop-color:#A9ACAB"/>
	</radialGradient>
	<path fill="url(#SVGID_3_)" d="M893.274,650.066c-0.427-38.071,11.881-153.772,10.453-270.398H888.1
		c1.758,113.232-9.94,226.218-9.541,263.182c2.021,183.318-2.429,321.791-10.269,414.966h16.534
		C891.704,961.793,895.266,825.801,893.274,650.066z"/>
	
		<linearGradient id="SVGID_4_" gradientUnits="userSpaceOnUse" x1="398.3262" y1="1081.4102" x2="868.7324" y2="1081.4102" gradientTransform="matrix(1.041 0 0 1.1476 -19.5249 -76.7822)">
		<stop  offset="0" style="stop-color:#373C3A"/>
		<stop  offset="1" style="stop-color:#1B1C1C"/>
	</linearGradient>
	<path fill="url(#SVGID_4_)" d="M868.29,1057.815c-4.695,55.841-2.939,95.391-9.41,118.559
		c-3.195,11.452-11.063,20.944-21.945,28.845l-23.168-104.699H466.194l-28.006,100.861c-8.351-7.104-14.433-15.331-17.126-25.007
		c-6.472-23.168-4.707-62.718-9.406-118.559h-16.524c5.042,70.426,4.209,119.375,11.976,146.547
		c3.477,12.195,12.173,22.249,24.196,30.566c2.578-1.316,5.694-2.143,9.539-2.143c21.412,0,31.843,15.36,55.558,10.951
		c15.632-2.898,20.924,11.319,22.741,21.352c14.04,2.43,28.133,4.226,41.496,5.553c2.192-3.349,5.74-5.553,9.776-5.553h138.921
		c4.062,0,7.613,2.216,9.819,5.585c9.982-1.002,20.372-2.246,30.843-3.818c1.51-10.033,6.48-26.19,23.047-23.118
		c23.698,4.409,34.13-10.951,55.565-10.951c6.694,0,11.246,2.429,14.368,5.816c14.983-8.99,25.855-20.209,29.865-34.24
		c7.777-27.172,6.93-76.121,11.982-146.547H868.29z"/>
	
		<linearGradient id="SVGID_5_" gradientUnits="userSpaceOnUse" x1="751.9102" y1="244.6934" x2="886.8906" y2="244.6934" gradientTransform="matrix(1.041 0 0 1.1476 -19.5249 -76.7822)">
		<stop  offset="0" style="stop-color:#1B1C1C"/>
		<stop  offset="1" style="stop-color:#373C3A"/>
	</linearGradient>
	<path fill="url(#SVGID_5_)" d="M880.271,222.709c4.778,46.525,6.981,101.768,7.828,156.958h15.628
		c-0.727-58.339-2.962-116.909-8.145-166.105c-5.86-55.767-15.22-84.596-31.865-107.779c-6.91,1.643-14.361,0.172-20.588-4.853
		L783.033,52.52c-6.315-5.098-10.093-12.798-11.051-20.969c-2.839-1.108-5.777-2.148-8.77-3.165v18.801
		c16.484,6.466,30.549,14.462,41.001,24.046C851.532,114.652,870.74,130.146,880.271,222.709z"/>
	
		<linearGradient id="SVGID_6_" gradientUnits="userSpaceOnUse" x1="380.1719" y1="244.6934" x2="515.1313" y2="244.6934" gradientTransform="matrix(1.041 0 0 1.1476 -19.5249 -76.7822)">
		<stop  offset="0" style="stop-color:#1B1C1C"/>
		<stop  offset="1" style="stop-color:#373C3A"/>
	</linearGradient>
	<path fill="url(#SVGID_6_)" d="M399.689,222.709c9.496-92.563,28.74-108.058,76.047-151.476
		c10.431-9.578,24.521-17.58,40.99-24.046V28.386c-2.97,1.017-5.909,2.057-8.751,3.165c-0.959,8.171-4.736,15.871-11.053,20.969
		l-60.093,48.411c-6.24,5.025-13.702,6.496-20.59,4.853c-16.642,23.183-26.007,52.012-31.875,107.779
		c-5.169,49.196-7.41,107.766-8.13,166.105h15.606C392.682,324.478,394.901,269.234,399.689,222.709z"/>
	
		<radialGradient id="SVGID_7_" cx="640.9448" cy="-3435.1235" r="324.1605" gradientTransform="matrix(0.9955 0 0 2.2823 1.9092 8491.3369)" gradientUnits="userSpaceOnUse">
		<stop  offset="0" style="stop-color:#F7F8F8"/>
		<stop  offset="1" style="stop-color:#A9ACAB"/>
	</radialGradient>
	<path fill="url(#SVGID_7_)" d="M401.383,642.85c-3.225,293.202,2.428,471.733,19.679,533.524
		c2.693,9.676,8.775,17.902,17.126,25.007l28.006-100.861h347.573l23.168,104.699c10.883-7.9,18.75-17.393,21.945-28.845
		c17.27-61.791,22.923-240.322,19.679-533.524c-0.399-36.963,11.299-149.949,9.541-263.182H391.84
		C390.094,492.9,401.785,605.886,401.383,642.85z"/>
	
		<radialGradient id="SVGID_8_" cx="640.9458" cy="-5321.6611" r="259.2292" gradientTransform="matrix(0.9955 0 0 4.2065 1.9092 23020.9727)" gradientUnits="userSpaceOnUse">
		<stop  offset="0" style="stop-color:#FFFFFF"/>
		<stop  offset="1" style="stop-color:#D3D6D5"/>
	</radialGradient>
	<path fill="url(#SVGID_8_)" d="M401.383,642.85c-3.225,293.202,2.428,471.733,19.679,533.524
		c2.693,9.676,8.775,17.902,17.126,25.007l28.006-100.861h347.573l23.168,104.699c10.883-7.9,18.75-17.393,21.945-28.845
		c17.27-61.791,22.923-240.322,19.679-533.524c-0.399-36.963,11.299-149.949,9.541-263.182H391.84
		C390.094,492.9,401.785,605.886,401.383,642.85z"/>
	
		<radialGradient id="SVGID_9_" cx="640.9438" cy="-3435.1226" r="324.2337" gradientTransform="matrix(0.9955 0 0 2.2823 1.9092 8491.3369)" gradientUnits="userSpaceOnUse">
		<stop  offset="0" style="stop-color:#F7F8F8"/>
		<stop  offset="1" style="stop-color:#A9ACAB"/>
	</radialGradient>
	<path fill="url(#SVGID_9_)" d="M399.689,222.709c-4.788,46.525-7.007,101.768-7.849,156.958H888.1
		c-0.847-55.19-3.05-110.434-7.828-156.958c-9.531-92.563-28.739-108.058-76.058-151.476c-10.452-9.584-24.517-17.58-41.001-24.046
		v42.53H516.726v-42.53c-16.468,6.466-30.559,14.468-40.99,24.046C428.429,114.652,409.185,130.146,399.689,222.709z"/>
	<linearGradient id="SVGID_10_" gradientUnits="userSpaceOnUse" x1="391.8398" y1="203.3789" x2="888.0996" y2="203.3789">
		<stop  offset="0" style="stop-color:#373C3A"/>
		<stop  offset="1" style="stop-color:#1B1C1C"/>
	</linearGradient>
	<path fill="url(#SVGID_10_)" d="M880.271,222.709c-9.531-92.563-28.739-108.058-76.058-151.476
		c-10.452-9.584-24.517-17.58-41.001-24.046c-68.27-26.797-178.209-26.797-246.487,0c-16.468,6.466-30.559,14.468-40.99,24.046
		c-47.307,43.418-66.551,58.913-76.047,151.476c-4.788,46.525-7.007,101.768-7.849,156.958H888.1
		C887.253,324.478,885.05,269.234,880.271,222.709z"/>
	<path fill="#EC2227" d="M551.225,16.368c1.306,4.439-1.267,9.073-5.768,10.365l-12.824,3.669
		c-4.495,1.286-9.202-1.261-10.496-5.695l0,0c-1.319-4.425,1.264-9.064,5.765-10.355l12.83-3.674
		C545.218,9.387,549.922,11.944,551.225,16.368L551.225,16.368z"/>
	<path fill="#3984C6" d="M728.97,16.368c-1.306,4.439,1.287,9.073,5.778,10.365l12.829,3.669c4.49,1.286,9.196-1.261,10.494-5.695
		l0,0c1.314-4.425-1.268-9.064-5.768-10.355l-12.821-3.674C734.981,9.387,730.277,11.944,728.97,16.368L728.97,16.368z"/>
	<linearGradient id="SVGID_11_" gradientUnits="userSpaceOnUse" x1="431.0049" y1="349.3286" x2="848.9443" y2="349.3286">
		<stop  offset="0" style="stop-color:#010101"/>
		<stop  offset="1" style="stop-color:#1B1C1C"/>
	</linearGradient>
	<path fill="url(#SVGID_11_)" d="M446.669,376.531c16.167-7.732,44.265-20.55,88.25-31.084c63.118-15.105,146.991-15.105,210.095,0
		c44.012,10.534,72.109,23.352,88.266,31.084c7.085,3.374,11.565,6.16,13.862,8.946l0.092-0.612c0,0,2.98-14.647,1.072-18.582
		c-1.675-3.418-6.493-6.634-15.026-10.686c-16.156-7.731-44.254-20.551-88.266-31.084c-63.104-15.111-146.978-15.111-210.095,0
		c-43.985,10.533-72.083,23.353-88.25,31.084c-8.533,4.052-13.352,7.268-15.019,10.686c-1.924,3.935,1.066,18.582,1.066,18.582
		l0.096,0.612C435.099,382.691,439.585,379.904,446.669,376.531z"/>
	<linearGradient id="SVGID_12_" gradientUnits="userSpaceOnUse" x1="432.8125" y1="443.6484" x2="847.1426" y2="443.6484">
		<stop  offset="0" style="stop-color:#373C3A"/>
		<stop  offset="1" style="stop-color:#1B1C1C"/>
	</linearGradient>
	<path fill="url(#SVGID_12_)" d="M541.941,528.904c45.898-7.094,150.163-7.094,196.072,0c41.621,6.446,71.405,19.075,82.429,24.274
		l26.7-167.702c-2.297-2.786-6.777-5.573-13.862-8.946c-16.156-7.732-44.254-20.55-88.266-31.084
		c-63.104-15.105-146.978-15.105-210.095,0c-43.985,10.534-72.083,23.352-88.25,31.084c-7.084,3.374-11.57,6.16-13.857,8.946
		l26.697,167.702C470.537,547.979,500.32,535.35,541.941,528.904z"/>
	<linearGradient id="SVGID_13_" gradientUnits="userSpaceOnUse" x1="637.5615" y1="1237.0693" x2="637.5615" y2="1142.6815">
		<stop  offset="0" style="stop-color:#373C3A"/>
		<stop  offset="1" style="stop-color:#1B1C1C"/>
	</linearGradient>
	<path fill="url(#SVGID_13_)" d="M466.194,1100.52l-28.006,100.861c53.186,45.184,201.761,42.337,201.783,42.337
		c0.015,0,140.156,2.715,196.964-38.499l-23.168-104.699H466.194z"/>
	<linearGradient id="SVGID_14_" gradientUnits="userSpaceOnUse" x1="476.9287" y1="1059.9609" x2="803.0342" y2="1059.9609">
		<stop  offset="0" style="stop-color:#373C3A"/>
		<stop  offset="1" style="stop-color:#1B1C1C"/>
	</linearGradient>
	<path fill="url(#SVGID_14_)" d="M481.549,1008.191c-7.976,42.674-3.206,80.09-3.206,80.09s32.921,12.208,79.943,19.332
		c36.183,5.491,127.204,5.491,163.367,0c47.041-7.124,79.958-19.332,79.958-19.332s4.735-37.029-3.072-79.437
		c-27.742,5.94-79.582,13.892-158.553,13.892C566.432,1022.736,511.235,1014.183,481.549,1008.191z"/>
	<g>
		<linearGradient id="SVGID_15_" gradientUnits="userSpaceOnUse" x1="409.7998" y1="569.0835" x2="457.6519" y2="569.0835">
			<stop  offset="0" style="stop-color:#373C3A"/>
			<stop  offset="1" style="stop-color:#1B1C1C"/>
		</linearGradient>
		<path fill="url(#SVGID_15_)" d="M414.732,745.395l42.92,13.104l-6.049-173.383l-33.486-205.448c0,0-10.718,52.692-7.82,128.226
			c1.849,47.756,7.048,113.517,6.957,155.899C417.172,704.067,415.836,731.36,414.732,745.395z"/>
		<linearGradient id="SVGID_16_" gradientUnits="userSpaceOnUse" x1="822.2881" y1="569.0835" x2="870.1563" y2="569.0835">
			<stop  offset="0" style="stop-color:#373C3A"/>
			<stop  offset="1" style="stop-color:#1B1C1C"/>
		</linearGradient>
		<path fill="url(#SVGID_16_)" d="M865.229,745.395l-42.94,13.104l6.054-173.383l33.518-205.448c0,0,10.698,52.692,7.798,128.226
			c-1.848,47.756-7.042,113.517-6.961,155.899C862.778,704.067,863.881,731.737,865.229,745.395z"/>
	</g>
	<g>
		<linearGradient id="SVGID_17_" gradientUnits="userSpaceOnUse" x1="411.915" y1="887.8213" x2="461.9487" y2="887.8213">
			<stop  offset="0" style="stop-color:#373C3A"/>
			<stop  offset="1" style="stop-color:#1B1C1C"/>
		</linearGradient>
		<path fill="url(#SVGID_17_)" d="M413.687,761.428l44.205,16.75l4.057,144.975c0,0-3.165,18.023-16.755,47.724
			c-15.467,33.876-31.506,43.339-31.506,43.339S409.701,815.698,413.687,761.428z"/>
		<linearGradient id="SVGID_18_" gradientUnits="userSpaceOnUse" x1="817.9922" y1="887.8213" x2="868.0225" y2="887.8213">
			<stop  offset="0" style="stop-color:#373C3A"/>
			<stop  offset="1" style="stop-color:#1B1C1C"/>
		</linearGradient>
		<path fill="url(#SVGID_18_)" d="M866.248,761.428l-44.183,16.75l-4.073,144.975c0,0,3.165,18.023,16.76,47.724
			c15.482,33.876,31.496,43.339,31.496,43.339S870.239,815.698,866.248,761.428z"/>
	</g>
	<g>
		
			<radialGradient id="SVGID_19_" cx="462.2773" cy="127.0225" r="39.9196" gradientTransform="matrix(0.9955 0 0 1.1476 1.9097 -76.7822)" gradientUnits="userSpaceOnUse">
			<stop  offset="0" style="stop-color:#FFFFFF"/>
			<stop  offset="1" style="stop-color:#D3D6D5"/>
		</radialGradient>
		<path fill="url(#SVGID_19_)" d="M436.829,100.93l60.093-48.411c6.317-5.098,10.094-12.798,11.053-20.969
			c-17.131,6.66-31.785,14.861-42.708,24.648c-21.139,18.953-36.979,32.794-49.028,49.584
			C423.126,107.426,430.588,105.956,436.829,100.93z"/>
		
			<radialGradient id="SVGID_20_" cx="819.6289" cy="127.0225" r="39.9196" gradientTransform="matrix(0.9955 0 0 1.1476 1.9097 -76.7822)" gradientUnits="userSpaceOnUse">
			<stop  offset="0" style="stop-color:#FFFFFF"/>
			<stop  offset="1" style="stop-color:#D3D6D5"/>
		</radialGradient>
		<path fill="url(#SVGID_20_)" d="M783.033,52.52l60.097,48.411c6.227,5.025,13.678,6.496,20.588,4.853
			c-12.045-16.79-27.896-30.631-49.033-49.584c-10.92-9.788-25.577-17.988-42.702-24.648
			C772.94,39.722,776.718,47.421,783.033,52.52z"/>
	</g>
	<linearGradient id="SVGID_21_" gradientUnits="userSpaceOnUse" x1="431.3032" y1="1248.9375" x2="519.1406" y2="1248.9375">
		<stop  offset="0" style="stop-color:#F37F5F"/>
		<stop  offset="0.5" style="stop-color:#EB2227"/>
		<stop  offset="1" style="stop-color:#CF232B"/>
	</linearGradient>
	<path fill="url(#SVGID_21_)" d="M496.4,1243.737c-23.715,4.409-34.146-10.951-55.558-10.951c-3.844,0-6.961,0.826-9.539,2.143
		c21.787,15.065,54.619,24.405,87.837,30.16C517.324,1255.057,512.032,1240.839,496.4,1243.737z"/>
	<linearGradient id="SVGID_22_" gradientUnits="userSpaceOnUse" x1="749.9961" y1="1249.8203" x2="842.9766" y2="1249.8203">
		<stop  offset="0" style="stop-color:#F37F5F"/>
		<stop  offset="0.5" style="stop-color:#EB2227"/>
		<stop  offset="1" style="stop-color:#CF232B"/>
	</linearGradient>
	<path fill="url(#SVGID_22_)" d="M773.043,1243.737c-16.566-3.072-21.537,13.085-23.047,23.118
		c34.027-5.155,68.833-13.778,92.98-28.253c-3.122-3.388-7.674-5.816-14.368-5.816
		C807.173,1232.786,796.741,1248.146,773.043,1243.737z"/>
	<linearGradient id="SVGID_23_" gradientUnits="userSpaceOnUse" x1="635.7734" y1="400.7178" x2="756.5513" y2="486.5977">
		<stop  offset="0" style="stop-color:#373C3A"/>
		<stop  offset="1" style="stop-color:#010101"/>
	</linearGradient>
	<path fill="url(#SVGID_23_)" d="M833.28,376.531c-16.156-7.732-44.254-20.55-88.266-31.084
		c-15.391-3.688-32.058-6.451-49.318-8.359c-44.331,52.585-96.848,147.927-118.313,188.305c51.569-3.266,124.336-2.112,160.63,3.512
		c41.621,6.446,71.405,19.075,82.429,24.274l26.7-167.702C844.846,382.691,840.365,379.904,833.28,376.531z"/>
	<linearGradient id="SVGID_24_" gradientUnits="userSpaceOnUse" x1="516.3203" y1="559.4648" x2="995.8652" y2="1346.5798">
		<stop  offset="0" style="stop-color:#F7F8F8"/>
		<stop  offset="1" style="stop-color:#DCDBDB"/>
	</linearGradient>
	<path fill="url(#SVGID_24_)" d="M639.971,560.121c-128.681-3.216-171.884,22.541-171.884,22.541s1.569,343.254,11.386,377.355
		c6.665,23.117,87.746,33.354,139.248,37.541h42.501c51.521-4.187,132.591-14.424,139.237-37.541
		c9.839-34.101,11.389-377.355,11.389-377.355S768.675,556.905,639.971,560.121z"/>
	<path fill="#131313" d="M496.731,63.492c0,0-77.461,43.072-85.714,138.799c-8.416,97.788-7.176,147.045-7.176,147.045
		S430.384,115.402,496.731,63.492z"/>
	<path fill="#131313" d="M783.637,63.492c0,0,77.488,43.072,85.736,138.799c8.418,97.788,7.184,147.045,7.184,147.045
		S850,115.402,783.637,63.492z"/>
	<g>
		<linearGradient id="SVGID_25_" gradientUnits="userSpaceOnUse" x1="854.4922" y1="400.5713" x2="903.3764" y2="495.2195">
			<stop  offset="0" style="stop-color:#373C3A"/>
			<stop  offset="1" style="stop-color:#1B1C1C"/>
		</linearGradient>
		<path fill="url(#SVGID_25_)" d="M860.38,392.463c0,0,20.096,4.374,20.546,23.327c0.469,18.933-20.086,57.35-20.546,33.049
			C859.92,424.533,858.553,399.767,860.38,392.463z"/>
		<linearGradient id="SVGID_26_" gradientUnits="userSpaceOnUse" x1="873.2852" y1="428.7666" x2="932.2205" y2="428.7666">
			<stop  offset="0" style="stop-color:#FFFFFF"/>
			<stop  offset="1" style="stop-color:#D3D6D5"/>
		</linearGradient>
		<path fill="url(#SVGID_26_)" d="M930.254,433.999c-4.42-6.556-44.867-20.402-44.867-20.402
			c-7.973-2.893-10.709,4.919-11.628,11.522l57.986,19.438C932.427,441.583,932.663,437.562,930.254,433.999z"/>
		<linearGradient id="SVGID_27_" gradientUnits="userSpaceOnUse" x1="873.29" y1="436.979" x2="932.2262" y2="436.979">
			<stop  offset="0" style="stop-color:#373C3A"/>
			<stop  offset="1" style="stop-color:#1B1C1C"/>
		</linearGradient>
		<path fill="url(#SVGID_27_)" d="M873.759,425.119c-0.62,4.312-0.446,8.11-0.446,8.11l56.941,15.61c0,0,0.908-1.771,1.491-4.283
			L873.759,425.119z"/>
	</g>
	<g>
		<linearGradient id="SVGID_28_" gradientUnits="userSpaceOnUse" x1="408.5449" y1="408.5269" x2="451.1693" y2="502.0925">
			<stop  offset="0" style="stop-color:#373C3A"/>
			<stop  offset="1" style="stop-color:#1B1C1C"/>
		</linearGradient>
		<path fill="url(#SVGID_28_)" d="M419.325,391.171c0,0-21.382,4.364-21.862,23.298c-0.485,18.942,21.383,57.354,21.862,33.046
			C419.806,423.219,421.264,398.444,419.325,391.171z"/>
		<linearGradient id="SVGID_29_" gradientUnits="userSpaceOnUse" x1="347.5459" y1="427.8945" x2="406.4969" y2="427.8945">
			<stop  offset="0" style="stop-color:#D3D6D5"/>
			<stop  offset="1" style="stop-color:#FFFFFF"/>
		</linearGradient>
		<path fill="url(#SVGID_29_)" d="M394.375,412.293c0,0-40.443,13.846-44.874,20.404c-2.632,3.909-2.117,8.4-1.275,11.417
			l57.901-19.551C405.296,417.811,402.643,409.294,394.375,412.293z"/>
		<linearGradient id="SVGID_30_" gradientUnits="userSpaceOnUse" x1="347.5381" y1="436.0396" x2="406.488" y2="436.0396">
			<stop  offset="0" style="stop-color:#373C3A"/>
			<stop  offset="1" style="stop-color:#1B1C1C"/>
		</linearGradient>
		<path fill="url(#SVGID_30_)" d="M348.227,444.115c0.566,2.036,1.275,3.401,1.275,3.401l56.964-15.595c0,0,0.152-3.372-0.337-7.357
			L348.227,444.115z"/>
	</g>
	<path fill="#5A5A5A" d="M387.272,641.277c-2.971,0-5.354,2.635-5.354,5.879v48.757c0,3.235,2.383,5.878,5.354,5.878V641.277z"/>
	<path fill="#5A5A5A" d="M389.951,885.202c-2.954,0-5.353,2.654-5.353,5.9v48.735c0,3.247,2.399,5.9,5.353,5.9V885.202z"/>
	<linearGradient id="SVGID_31_" gradientUnits="userSpaceOnUse" x1="464.6616" y1="1057.8076" x2="815.2881" y2="1057.8076">
		<stop  offset="0" style="stop-color:#010101"/>
		<stop  offset="1" style="stop-color:#1B1C1C"/>
	</linearGradient>
	<path fill="url(#SVGID_31_)" d="M807.131,1006.895c-1.346-5.082-2.917-10.186-4.734-15.248c0,0-2.347,0.93-7.104,2.399
		c-17.392,5.356-67.402,17.871-155.306,17.871c-80.546,0-136.293-13.022-155.241-18.189c-4.716-1.264-7.185-2.081-7.185-2.081
		c-1.761,4.899-3.281,9.84-4.614,14.738c-13.085,48.165-6.752,94.135-6.752,94.135s35.381,12.208,85.95,19.33
		c38.908,5.493,136.758,5.493,175.664,0c50.563-7.122,85.959-19.33,85.959-19.33S820.032,1054.856,807.131,1006.895z
		 M801.611,1088.281c0,0-32.917,12.208-79.958,19.332c-36.163,5.491-127.184,5.491-163.367,0
		c-47.021-7.124-79.943-19.332-79.943-19.332s-4.77-37.416,3.206-80.09c29.686,5.991,84.882,14.545,158.437,14.545
		c78.971,0,130.811-7.951,158.553-13.892C806.347,1051.252,801.611,1088.281,801.611,1088.281z"/>
	<path fill="#5A5A5A" d="M892.685,641.277c2.938,0,5.337,2.635,5.337,5.879v48.757c0,3.235-2.399,5.878-5.337,5.878V641.277z"/>
	<linearGradient id="SVGID_32_" gradientUnits="userSpaceOnUse" x1="459.5093" y1="548.5254" x2="820.4424" y2="548.5254">
		<stop  offset="0" style="stop-color:#010101"/>
		<stop  offset="1" style="stop-color:#1B1C1C"/>
	</linearGradient>
	<path fill="url(#SVGID_32_)" d="M541.941,528.904c-41.621,6.446-71.405,19.075-82.432,24.274l3.23,20.288
		c0,0,32.533-18.403,83.422-26.63c43.93-7.099,143.698-7.099,187.626,0c50.891,8.227,83.438,26.63,83.438,26.63l3.217-20.288
		c-11.023-5.199-40.808-17.829-82.429-24.274C692.104,521.811,587.839,521.811,541.941,528.904z"/>
	<path fill="#5A5A5A" d="M890.009,885.202c2.939,0,5.349,2.654,5.349,5.9v48.735c0,3.247-2.409,5.9-5.349,5.9V885.202z"/>
	<g>
		<g>
			<g>
				<path fill="#9E9E9E" d="M523.651,295.49c8.59-0.739,12.89-6.093,21.485-6.838c0.71-0.071,1.25-0.683,1.25-1.448
					c0-0.767-0.54-1.399-1.25-1.334c-8.595,0.742-12.896,6.094-21.485,6.839c-0.703,0.062-1.27,0.674-1.27,1.45
					C522.382,294.93,522.948,295.557,523.651,295.49z"/>
				<path fill="#9E9E9E" d="M545.12,291.434c-8.579,0.745-12.879,6.093-21.469,6.833c-0.703,0.076-1.27,0.68-1.27,1.46
					c0,0.775,0.566,1.392,1.27,1.327c8.59-0.751,12.89-6.093,21.469-6.839c0.727-0.06,1.267-0.674,1.267-1.449
					C546.387,291.996,545.825,291.368,545.12,291.434z"/>
				<path fill="#9E9E9E" d="M545.12,296.997c-8.579,0.745-12.879,6.092-21.469,6.858c-0.703,0.046-1.27,0.664-1.27,1.434
					c0,0.76,0.566,1.399,1.27,1.327c8.59-0.735,12.89-6.092,21.485-6.828c0.71-0.071,1.25-0.689,1.25-1.458
					C546.387,297.558,545.847,296.93,545.12,296.997z"/>
			</g>
		</g>
		<g>
			<g>
				<path fill="#9E9E9E" d="M756.12,295.49c-8.614-0.739-12.901-6.093-21.495-6.838c-0.693-0.071-1.267-0.683-1.267-1.448
					c0-0.767,0.573-1.399,1.267-1.334c8.594,0.742,12.881,6.094,21.495,6.839c0.684,0.062,1.255,0.674,1.255,1.45
					C757.375,294.93,756.804,295.557,756.12,295.49z"/>
				<path fill="#9E9E9E" d="M734.625,291.434c8.594,0.745,12.881,6.093,21.475,6.833c0.704,0.076,1.275,0.68,1.275,1.46
					c0,0.775-0.571,1.392-1.255,1.327c-8.614-0.751-12.901-6.093-21.495-6.839c-0.693-0.06-1.267-0.674-1.267-1.449
					C733.358,291.996,733.932,291.368,734.625,291.434z"/>
				<path fill="#9E9E9E" d="M734.625,296.997c8.594,0.745,12.881,6.092,21.495,6.858c0.684,0.046,1.266,0.664,1.266,1.434
					c0,0.76-0.582,1.399-1.266,1.327c-8.614-0.735-12.901-6.092-21.495-6.828c-0.693-0.071-1.267-0.689-1.267-1.458
					C733.358,297.558,733.932,296.93,734.625,296.997z"/>
			</g>
		</g>
	</g>
	<linearGradient id="SVGID_33_" gradientUnits="userSpaceOnUse" x1="560.6362" y1="1269.7168" x2="719.1533" y2="1269.7168">
		<stop  offset="0" style="stop-color:#373C3A"/>
		<stop  offset="1" style="stop-color:#1B1C1C"/>
	</linearGradient>
	<path fill="url(#SVGID_33_)" d="M709.334,1265.089H570.413c-4.037,0-7.584,2.204-9.776,5.553
		c43.584,4.348,79.334,3.665,79.334,3.665c0.015,0,35.66,0.683,79.183-3.633C716.947,1267.305,713.396,1265.089,709.334,1265.089z"
		/>
	<linearGradient id="SVGID_34_" gradientUnits="userSpaceOnUse" x1="568.4785" y1="918.4248" x2="647.6202" y2="1039.7838">
		<stop  offset="0" style="stop-color:#373C3A"/>
		<stop  offset="1" style="stop-color:#010101"/>
	</linearGradient>
	<path fill="url(#SVGID_34_)" d="M798.539,1008.845c-27.742,5.94-79.582,13.892-158.553,13.892c-16.152,0-31.354-0.43-45.644-1.144
		c-45.301,15.668-72.772,64.872-79.161,77.468c12.154,2.98,26.747,6.073,43.105,8.553c36.183,5.491,127.204,5.491,163.367,0
		c47.041-7.124,79.958-19.332,79.958-19.332S806.347,1051.252,798.539,1008.845z"/>
	
		<radialGradient id="SVGID_35_" cx="532.2637" cy="710.3047" r="43.4314" gradientTransform="matrix(0.9955 0 0 0.9811 1.9097 14.644)" gradientUnits="userSpaceOnUse">
		<stop  offset="0" style="stop-color:#F37F5F"/>
		<stop  offset="0.3927" style="stop-color:#EB2227"/>
		<stop  offset="1" style="stop-color:#B21F24"/>
	</radialGradient>
	<path fill="url(#SVGID_35_)" d="M504.484,679.186c-4.286,0-7.752,3.407-7.752,7.634v49.419c0,4.226,3.466,7.626,7.752,7.626h62.341
		v-64.679H504.484z"/>
	<linearGradient id="SVGID_36_" gradientUnits="userSpaceOnUse" x1="639.5435" y1="675.8838" x2="639.5435" y2="745.5072">
		<stop  offset="0" style="stop-color:#373C3A"/>
		<stop  offset="0.1587" style="stop-color:#383E3B"/>
		<stop  offset="0.3993" style="stop-color:#010101"/>
		<stop  offset="0.7357" style="stop-color:#5D6262"/>
		<stop  offset="1" style="stop-color:#1B1C1C"/>
	</linearGradient>
	<rect x="566.825" y="679.186" fill="url(#SVGID_36_)" width="145.438" height="64.679"/>
	
		<radialGradient id="SVGID_37_" cx="749.4121" cy="710.3047" r="44.7882" gradientTransform="matrix(0.9955 0 0 0.9811 1.9097 14.644)" gradientUnits="userSpaceOnUse">
		<stop  offset="0" style="stop-color:#33C4F2"/>
		<stop  offset="0.3491" style="stop-color:#2AACE3"/>
		<stop  offset="1" style="stop-color:#385FAC"/>
	</radialGradient>
	<path fill="url(#SVGID_37_)" d="M775.901,679.186h-63.639v64.679h63.639c4.266,0,7.735-3.4,7.735-7.626v-49.419
		C783.637,682.593,780.167,679.186,775.901,679.186z"/>
	
		<radialGradient id="SVGID_38_" cx="641.874" cy="67.0005" r="13.5444" gradientTransform="matrix(1.2823 0.5501 -0.3974 0.8995 -53.6201 -390.4346)" gradientUnits="userSpaceOnUse">
		<stop  offset="0" style="stop-color:#B894C5"/>
		<stop  offset="0.0093" style="stop-color:#B08EBA"/>
		<stop  offset="0.0941" style="stop-color:#7E6882"/>
		<stop  offset="0.1789" style="stop-color:#584A59"/>
		<stop  offset="0.2617" style="stop-color:#3C343C"/>
		<stop  offset="0.3422" style="stop-color:#262227"/>
		<stop  offset="0.4197" style="stop-color:#151315"/>
		<stop  offset="0.493" style="stop-color:#060607"/>
		<stop  offset="0.5576" style="stop-color:#010101"/>
	</radialGradient>
	<path fill="url(#SVGID_38_)" d="M756.181,28.653c-2.286,5.18-10.113,6.802-17.493,3.644c-7.379-3.165-11.491-9.926-9.207-15.101
		c2.268-5.175,10.115-6.802,17.495-3.634C754.345,16.721,758.468,23.478,756.181,28.653z"/>
	
		<radialGradient id="SVGID_39_" cx="716.2461" cy="66.1875" r="8.4899" gradientTransform="matrix(2.188 -0.504 0.2892 1.2193 -1049.8242 300.7109)" gradientUnits="userSpaceOnUse">
		<stop  offset="0" style="stop-color:#FFFFFF"/>
		<stop  offset="0.0093" style="stop-color:#EEEDED"/>
		<stop  offset="0.0941" style="stop-color:#9E9B9B"/>
		<stop  offset="0.1789" style="stop-color:#676464"/>
		<stop  offset="0.2617" style="stop-color:#444141"/>
		<stop  offset="0.3422" style="stop-color:#2A2929"/>
		<stop  offset="0.4197" style="stop-color:#171616"/>
		<stop  offset="0.493" style="stop-color:#070707"/>
		<stop  offset="0.5576" style="stop-color:#010101"/>
	</radialGradient>
	<path fill="url(#SVGID_39_)" d="M550.744,17.134c1.052,4.405-4.49,9.425-12.395,11.252c-7.881,1.822-15.123-0.27-16.163-4.669
		c-1.041-4.403,4.491-9.435,12.386-11.252C542.464,10.643,549.708,12.74,550.744,17.134z"/>
	<g>
		<path fill="#B0B0B0" d="M743.484,166.332v-36.621h9.013v104.041h-15.779c-3.235,0-6.032-0.817-8.4-2.449
			c-2.377-1.628-4.326-3.91-5.879-6.834c-1.529-2.923-2.673-6.425-3.408-10.507c-0.736-4.073-1.101-8.533-1.101-13.376
			c0-5.042,0.385-9.656,1.161-13.85c0.786-4.207,1.96-7.809,3.521-10.835c1.561-3.017,3.521-5.374,5.868-7.047
			c2.349-1.68,5.084-2.522,8.237-2.522H743.484z M743.484,181.443h-6.767c-1.651,0-3.093,0.445-4.316,1.327
			c-1.235,0.894-2.246,2.165-3.052,3.818c-0.807,1.653-1.399,3.668-1.809,6.042c-0.407,2.379-0.611,5.022-0.611,7.957
			c0,2.776,0.204,5.297,0.611,7.552c0.409,2.251,1.002,4.17,1.809,5.758c0.806,1.581,1.816,2.791,3.052,3.628
			c1.224,0.842,2.665,1.265,4.316,1.265h6.767V181.443z"/>
		<path fill="#B0B0B0" d="M665.118,181.73c0-7.625,0.593-14.692,1.776-21.188c1.185-6.496,2.838-12.127,4.991-16.872
			c2.145-4.746,4.727-8.452,7.736-11.114c3.012-2.665,6.358-3.997,10.023-3.997c3.664,0,7.011,1.333,10.032,3.997
			c3.021,2.663,5.614,6.369,7.777,11.114c2.143,4.745,3.817,10.376,5.002,16.872c1.185,6.497,1.777,13.564,1.777,21.188
			c0,7.628-0.593,14.687-1.777,21.192c-1.185,6.497-2.859,12.122-5.002,16.867c-2.163,4.751-4.756,8.457-7.777,11.119
			c-3.021,2.665-6.368,3.998-10.032,3.998c-3.665,0-7.012-1.346-10.023-4.033c-3.01-2.689-5.592-6.393-7.736-11.119
			c-2.153-4.726-3.807-10.335-4.991-16.832C665.711,196.417,665.118,189.358,665.118,181.73z M674.367,181.73
			c0,5.709,0.347,10.829,1.05,15.364c0.706,4.533,1.716,8.38,3.031,11.549c1.327,3.165,2.92,5.589,4.818,7.269
			c1.878,1.673,4,2.516,6.379,2.516c2.358,0,4.501-0.843,6.399-2.516c1.897-1.68,3.51-4.104,4.838-7.269
			c1.326-3.168,2.347-7.016,3.061-11.549c0.716-4.536,1.083-9.655,1.083-15.364c0-5.705-0.367-10.831-1.083-15.361
			c-0.714-4.532-1.734-8.37-3.061-11.508c-1.328-3.149-2.94-5.553-4.838-7.23c-1.898-1.686-4.041-2.523-6.399-2.523
			c-2.379,0-4.501,0.838-6.379,2.523c-1.898,1.678-3.491,4.082-4.818,7.23c-1.315,3.138-2.325,6.976-3.031,11.508
			C674.714,170.899,674.367,176.025,674.367,181.73z"/>
		<path fill="#B0B0B0" d="M649.666,145.685h-19.392v-15.973h28.413v104.041h-9.021V145.685z"/>
		<path fill="#B0B0B0" d="M614.562,129.711h9.042v104.041h-9.042V129.711z"/>
		<path fill="#B0B0B0" d="M571.03,154.247c-0.49,0-0.915-0.407-1.276-1.224l-3.546-8.272c1.96-5.231,4.383-9.237,7.252-12.014
			c2.872-2.786,6.317-4.179,10.339-4.179c3.592,0,6.829,1.322,9.696,3.962c2.872,2.632,5.328,6.306,7.354,11.006
			c2.036,4.706,3.593,10.314,4.675,16.837c1.087,6.526,1.628,13.645,1.628,21.367c0,7.818-0.604,14.978-1.811,21.479
			c-1.207,6.5-2.905,12.099-5.09,16.805c-2.194,4.694-4.81,8.354-7.859,10.972c-3.05,2.608-6.414,3.919-10.104,3.919
			c-3.597,0-6.741-1.235-9.431-3.706c-2.694-2.47-4.995-5.746-6.919-9.822l3.016-8.993c0.178-0.577,0.409-1.083,0.689-1.516
			c0.275-0.429,0.665-0.649,1.153-0.649c0.517,0,1.036,0.435,1.578,1.297c0.53,0.868,1.218,1.801,2.047,2.807
			c0.826,1.011,1.865,1.939,3.127,2.806c1.264,0.864,2.868,1.297,4.808,1.297c2.281,0,4.372-0.852,6.281-2.556
			c1.913-1.706,3.557-4.136,4.925-7.304c1.378-3.165,2.449-7.017,3.219-11.549c0.767-4.531,1.153-9.624,1.153-15.289
			c0-5.854-0.387-11.056-1.153-15.611c-0.77-4.557-1.815-8.395-3.132-11.514c-1.322-3.118-2.869-5.501-4.661-7.154
			c-1.785-1.658-3.703-2.485-5.76-2.485c-1.231,0-2.337,0.142-3.333,0.433c-0.995,0.286-1.908,0.741-2.749,1.362
			c-0.837,0.623-1.629,1.43-2.379,2.415c-0.745,0.979-1.491,2.194-2.224,3.633c-0.23,0.435-0.465,0.775-0.71,1.041
			C571.593,154.116,571.32,154.247,571.03,154.247z"/>
		<path fill="#B0B0B0" d="M529.52,233.752v-15.401h21.475v-28.849h-16.917v-14.893h16.917v-29.431H529.52v-15.467h30.553v104.041
			H529.52z"/>
	</g>
	
		<radialGradient id="SVGID_40_" cx="735.6123" cy="696.583" r="48.3014" gradientTransform="matrix(0.9955 0 0 0.9811 1.9097 14.644)" gradientUnits="userSpaceOnUse">
		<stop  offset="0" style="stop-color:#B894C5"/>
		<stop  offset="0.0093" style="stop-color:#B08EBA"/>
		<stop  offset="0.0941" style="stop-color:#7E6882"/>
		<stop  offset="0.1789" style="stop-color:#584A59"/>
		<stop  offset="0.2617" style="stop-color:#3C343C"/>
		<stop  offset="0.3422" style="stop-color:#262227"/>
		<stop  offset="0.4197" style="stop-color:#151315"/>
		<stop  offset="0.493" style="stop-color:#060607"/>
		<stop  offset="0.5576" style="stop-color:#010101"/>
	</radialGradient>
	<path fill="url(#SVGID_40_)" d="M771.185,698.047c0,20.128-16.554,36.447-36.978,36.447c-20.422,0-36.969-16.319-36.969-36.447
		c0-20.106,16.547-36.417,36.969-36.417C754.631,661.63,771.185,677.94,771.185,698.047z"/>
	
		<radialGradient id="SVGID_41_" cx="760.6592" cy="721.0518" r="48.3001" gradientTransform="matrix(0.9955 0 0 0.9811 1.9097 14.644)" gradientUnits="userSpaceOnUse">
		<stop  offset="0" style="stop-color:#B894C5"/>
		<stop  offset="0.0093" style="stop-color:#B08EBA"/>
		<stop  offset="0.0941" style="stop-color:#7E6882"/>
		<stop  offset="0.1789" style="stop-color:#584A59"/>
		<stop  offset="0.2617" style="stop-color:#3C343C"/>
		<stop  offset="0.3422" style="stop-color:#262227"/>
		<stop  offset="0.4197" style="stop-color:#151315"/>
		<stop  offset="0.493" style="stop-color:#060607"/>
		<stop  offset="0.5576" style="stop-color:#010101"/>
	</radialGradient>
	<path fill="url(#SVGID_41_)" d="M796.118,722.083c0,20.106-16.564,36.416-36.977,36.416c-20.413,0-36.969-16.31-36.969-36.416
		c0-20.118,16.556-36.446,36.969-36.446C779.554,685.637,796.118,701.965,796.118,722.083z"/>
	
		<radialGradient id="SVGID_42_" cx="529.3755" cy="721.0518" r="48.3008" gradientTransform="matrix(0.9955 0 0 0.9811 1.9097 14.644)" gradientUnits="userSpaceOnUse">
		<stop  offset="0" style="stop-color:#FFFFFF"/>
		<stop  offset="0.0093" style="stop-color:#EEEDED"/>
		<stop  offset="0.0941" style="stop-color:#9E9B9B"/>
		<stop  offset="0.1789" style="stop-color:#676464"/>
		<stop  offset="0.2617" style="stop-color:#444141"/>
		<stop  offset="0.3422" style="stop-color:#2A2929"/>
		<stop  offset="0.4197" style="stop-color:#171616"/>
		<stop  offset="0.493" style="stop-color:#070707"/>
		<stop  offset="0.5576" style="stop-color:#010101"/>
	</radialGradient>
	<path fill="url(#SVGID_42_)" d="M565.876,722.083c0,20.106-16.555,36.416-36.974,36.416c-20.418,0-36.973-16.31-36.973-36.416
		c0-20.118,16.555-36.446,36.973-36.446C549.321,685.637,565.876,701.965,565.876,722.083z"/>
	
		<radialGradient id="SVGID_43_" cx="551.7305" cy="700.3896" r="48.2979" gradientTransform="matrix(0.9955 0 0 0.9811 1.9097 14.644)" gradientUnits="userSpaceOnUse">
		<stop  offset="0" style="stop-color:#FFFFFF"/>
		<stop  offset="0.0093" style="stop-color:#EEEDED"/>
		<stop  offset="0.0941" style="stop-color:#9E9B9B"/>
		<stop  offset="0.1789" style="stop-color:#676464"/>
		<stop  offset="0.2617" style="stop-color:#444141"/>
		<stop  offset="0.3422" style="stop-color:#2A2929"/>
		<stop  offset="0.4197" style="stop-color:#171616"/>
		<stop  offset="0.493" style="stop-color:#070707"/>
		<stop  offset="0.5576" style="stop-color:#010101"/>
	</radialGradient>
	<path fill="url(#SVGID_43_)" d="M588.125,701.791c0,20.117-16.555,36.438-36.974,36.438c-20.411,0-36.962-16.32-36.962-36.438
		c0-20.116,16.552-36.427,36.962-36.427C571.57,665.364,588.125,681.675,588.125,701.791z"/>
	<g>
		<path fill="#9E9E9E" d="M545.37,1187.398v22.882h-8.623v-65.005h15.106c3.103,0,5.787,0.511,8.051,1.53
			c2.261,1.022,4.139,2.451,5.614,4.277c1.475,1.816,2.563,4.012,3.267,6.562c0.707,2.542,1.061,5.338,1.061,8.359
			c0,3.145-0.373,6.032-1.123,8.656c-0.745,2.612-1.873,4.878-3.368,6.756c-1.495,1.898-3.362,3.368-5.614,4.411
			c-2.245,1.05-4.872,1.571-7.888,1.571H545.37z M545.37,1177.957h6.483c1.581,0,2.959-0.276,4.139-0.826
			c1.171-0.552,2.148-1.348,2.917-2.39c0.767-1.03,1.348-2.287,1.729-3.776c0.388-1.47,0.578-3.134,0.578-4.961
			c0-1.735-0.189-3.316-0.578-4.715c-0.381-1.419-0.963-2.613-1.729-3.603c-0.77-0.979-1.746-1.743-2.917-2.266
			c-1.18-0.53-2.559-0.786-4.139-0.786h-6.483V1177.957z"/>
		<path fill="#9E9E9E" d="M619.435,1177.783c0,4.766-0.565,9.176-1.699,13.238c-1.134,4.052-2.725,7.573-4.781,10.542
			c-2.053,2.962-4.521,5.278-7.412,6.941c-2.888,1.663-6.081,2.501-9.588,2.501c-3.505,0-6.711-0.838-9.609-2.501
			c-2.899-1.663-5.379-3.979-7.44-6.941c-2.061-2.969-3.658-6.49-4.792-10.542c-1.133-4.063-1.699-8.473-1.699-13.238
			s0.566-9.186,1.699-13.236c1.134-4.063,2.731-7.585,4.792-10.545c2.062-2.97,4.541-5.287,7.44-6.951
			c2.898-1.663,6.104-2.491,9.609-2.491c3.507,0,6.7,0.837,9.588,2.513c2.89,1.683,5.359,4,7.412,6.95
			c2.057,2.948,3.647,6.461,4.781,10.524C618.869,1168.598,619.435,1173.018,619.435,1177.783z M610.581,1177.783
			c0-3.572-0.337-6.768-1.011-9.604c-0.674-2.828-1.637-5.228-2.898-7.207c-1.266-1.979-2.802-3.491-4.607-4.541
			c-1.803-1.041-3.845-1.583-6.11-1.583s-4.307,0.542-6.129,1.583c-1.816,1.05-3.358,2.562-4.628,4.541
			c-1.275,1.979-2.254,4.379-2.934,7.207c-0.688,2.836-1.025,6.031-1.025,9.604c0,3.563,0.337,6.767,1.025,9.594
			c0.68,2.839,1.659,5.227,2.934,7.196c1.27,1.959,2.812,3.469,4.628,4.511c1.822,1.063,3.864,1.583,6.129,1.583
			s4.307-0.521,6.11-1.583c1.805-1.042,3.341-2.552,4.607-4.511c1.261-1.97,2.224-4.357,2.898-7.196
			C610.244,1184.55,610.581,1181.346,610.581,1177.783z"/>
		<path fill="#9E9E9E" d="M633.26,1200.299h18.569v9.981h-27.198v-65.005h8.628V1200.299z"/>
		<path fill="#9E9E9E" d="M665.915,1210.28h-8.665v-65.005h8.665V1210.28z"/>
		<path fill="#9E9E9E" d="M706.618,1194.95c0.47,0,0.88,0.264,1.214,0.765l3.4,5.166c-1.879,3.266-4.195,5.775-6.94,7.521
			c-2.755,1.735-6.053,2.604-9.901,2.604c-3.439,0-6.531-0.828-9.288-2.48c-2.744-1.644-5.091-3.941-7.032-6.879
			c-1.947-2.931-3.438-6.433-4.481-10.513c-1.04-4.073-1.55-8.533-1.55-13.351c0-4.889,0.57-9.359,1.735-13.422
			c1.143-4.063,2.775-7.554,4.867-10.49c2.094-2.943,4.604-5.228,7.522-6.86c2.92-1.635,6.146-2.451,9.676-2.451
			c3.44,0,6.451,0.767,9.023,2.317c2.582,1.541,4.785,3.594,6.624,6.135l-2.889,5.612c-0.163,0.369-0.388,0.686-0.654,0.952
			c-0.264,0.264-0.632,0.407-1.102,0.407c-0.5,0-1.001-0.277-1.51-0.808c-0.511-0.552-1.163-1.133-1.96-1.765
			c-0.797-0.623-1.797-1.216-3-1.746c-1.206-0.54-2.735-0.816-4.604-0.816c-2.174,0-4.185,0.542-6.012,1.603
			c-1.828,1.072-3.4,2.583-4.715,4.563c-1.307,1.98-2.35,4.39-3.084,7.216c-0.734,2.827-1.102,6.012-1.102,9.554
			c0,3.655,0.367,6.898,1.102,9.746c0.734,2.85,1.735,5.256,3.002,7.207c1.265,1.938,2.755,3.429,4.471,4.459
			c1.705,1.042,3.541,1.553,5.512,1.553c1.172,0,2.235-0.081,3.185-0.267c0.957-0.183,1.837-0.468,2.632-0.856
			c0.797-0.387,1.561-0.887,2.276-1.502c0.726-0.621,1.43-1.375,2.134-2.274c0.213-0.265,0.438-0.479,0.672-0.643
			C706.078,1195.032,706.333,1194.95,706.618,1194.95z"/>
		<path fill="#9E9E9E" d="M745.394,1145.275v9.623h-20.565v18.026h16.207v9.297h-16.207v18.393h20.565v9.666h-29.253v-65.005
			H745.394z"/>
	</g>
</g>
</svg>
