<?xml version="1.0" encoding="utf-8"?>
<!-- Generator: Adobe Illustrator 16.0.0, SVG Export Plug-In . SVG Version: 6.00 Build 0)  -->
<!DOCTYPE svg PUBLIC "-//W3C//DTD SVG 1.1//EN" "http://www.w3.org/Graphics/SVG/1.1/DTD/svg11.dtd">
<svg version="1.1" id="Layer_1" xmlns="http://www.w3.org/2000/svg" xmlns:xlink="http://www.w3.org/1999/xlink" x="0px" y="0px"
	 width="1280px" height="1280px" viewBox="0 0 1280 1280" enable-background="new 0 0 1280 1280" xml:space="preserve">
<g>
	<path fill="#EC2227" d="M571.044,19.726c1.285,4.399-1.234,9.002-5.648,10.287l-12.551,3.645c-4.403,1.28-8.992-1.254-10.276-5.653
		l0,0c-1.285-4.405,1.252-9.009,5.648-10.289l12.56-3.649C565.172,12.787,569.77,15.326,571.044,19.726L571.044,19.726z"/>
	<path fill="#3984C6" d="M745.001,19.726c-1.274,4.399,1.244,9.002,5.649,10.287l12.549,3.645c4.406,1.28,9.015-1.254,10.289-5.653
		l0,0c1.283-4.405-1.255-9.009-5.649-10.289l-12.551-3.649C750.885,12.787,746.286,15.326,745.001,19.726L745.001,19.726z"/>
	<linearGradient id="SVGID_1_" gradientUnits="userSpaceOnUse" x1="537.2881" y1="53.147" x2="778.5137" y2="53.147">
		<stop  offset="0" style="stop-color:#535A57"/>
		<stop  offset="1" style="stop-color:#2D2E2E"/>
	</linearGradient>
	<path fill="url(#SVGID_1_)" d="M778.514,92.557V31.648c-68.809-23.882-172.417-23.882-241.226,0v60.909H778.514z"/>
	<linearGradient id="SVGID_2_" gradientUnits="userSpaceOnUse" x1="874.3418" y1="395.0347" x2="835.2583" y2="64.7809">
		<stop  offset="0" style="stop-color:#1E94D2"/>
		<stop  offset="0.406" style="stop-color:#2AACE3"/>
		<stop  offset="1" style="stop-color:#33C4F2"/>
	</linearGradient>
	<path fill="url(#SVGID_2_)" d="M893.06,224.625c4.671,46.215,6.842,101.078,7.678,155.884h15.284
		c-0.703-57.937-2.897-116.101-7.962-164.953c-5.74-55.394-14.896-84.018-31.19-107.039c-6.759,1.63-14.048,0.163-20.145-4.822
		l-58.81-48.077c-6.199-5.058-9.889-12.715-10.836-20.826c-2.775-1.096-5.648-2.136-8.565-3.145v18.678
		c16.13,6.419,29.903,14.356,40.12,23.878C864.932,117.327,883.752,132.703,893.06,224.625z"/>
	
		<radialGradient id="SVGID_3_" cx="657.9023" cy="-3434.4058" r="315.8943" gradientTransform="matrix(1 0 0 2.3262 0 8639.4414)" gradientUnits="userSpaceOnUse">
		<stop  offset="0" style="stop-color:#F7F8F8"/>
		<stop  offset="1" style="stop-color:#A9ACAB"/>
	</radialGradient>
	<path fill="url(#SVGID_3_)" d="M916.021,380.51h-15.284c1.703,112.451-2.223,224.654-1.845,261.357
		c3.181,291.199-9.869,468.479-26.753,529.837c-3.13,11.377-10.828,20.798-21.482,28.639l-22.675-103.964H487.828l-27.405,100.161
		c-8.178-7.045-14.121-15.232-16.761-24.836c-16.885-61.357-29.935-238.638-26.764-529.837
		c0.398-36.704-3.538-148.906-1.834-261.357H399.78c-1.407,115.81,3.131,230.719,2.713,268.53
		c-3.364,302.521,9.552,486.693,27.517,550.456c3.405,12.112,11.908,22.104,23.674,30.361c2.519-1.304,5.578-2.131,9.339-2.131
		c20.961,0,31.167,15.266,54.362,10.88c15.303-2.874,20.482,11.234,22.256,21.207c13.745,2.416,27.539,4.199,40.61,5.515
		c2.151-3.333,5.618-5.515,9.574-5.515h135.967c3.965,0,7.442,2.193,9.584,5.546c9.777-0.988,19.952-2.243,30.199-3.803
		c1.479-9.951,6.342-26.009,22.563-22.95c23.184,4.386,33.39-10.88,54.373-10.88c6.536,0,11.001,2.428,14.06,5.763
		c14.671-8.912,25.307-20.056,29.23-33.993c17.965-63.763,30.883-247.936,27.507-550.456
		C912.891,611.229,917.438,496.319,916.021,380.51z"/>
	<linearGradient id="SVGID_4_" gradientUnits="userSpaceOnUse" x1="471.8652" y1="135.2954" x2="458.1859" y2="360.025">
		<stop  offset="0" style="stop-color:#33C4F2"/>
		<stop  offset="0.594" style="stop-color:#2AACE3"/>
		<stop  offset="1" style="stop-color:#1E94D2"/>
	</linearGradient>
	<path fill="url(#SVGID_4_)" d="M422.741,224.625c9.298-91.922,28.14-107.298,74.427-150.421c10.216-9.517,24-17.459,40.12-23.878
		V31.648c-2.906,1.015-5.782,2.049-8.564,3.145c-0.938,8.111-4.639,15.768-10.828,20.826l-58.807,48.077
		c-6.108,4.985-13.408,6.453-20.148,4.822c-16.282,23.021-25.458,51.645-31.198,107.039c-5.056,48.852-7.249,107.017-7.963,164.953
		h15.284C415.889,325.704,418.061,270.841,422.741,224.625z"/>
	
		<radialGradient id="SVGID_5_" cx="657.9014" cy="-3434.4082" r="315.8968" gradientTransform="matrix(1 0 0 2.3262 0 8639.4414)" gradientUnits="userSpaceOnUse">
		<stop  offset="0" style="stop-color:#F7F8F8"/>
		<stop  offset="1" style="stop-color:#A9ACAB"/>
	</radialGradient>
	<path fill="url(#SVGID_5_)" d="M416.898,641.867c-3.171,291.199,9.879,468.479,26.764,529.837
		c2.64,9.604,8.583,17.791,16.761,24.836l27.405-100.161h340.154l22.675,103.964c10.654-7.841,18.353-17.262,21.482-28.639
		c16.884-61.357,29.934-238.638,26.753-529.837c-0.378-36.704,3.548-148.906,1.845-261.357H415.064
		C413.361,492.961,417.296,605.164,416.898,641.867z"/>
	
		<radialGradient id="SVGID_6_" cx="657.9014" cy="-5321.2217" r="252.6163" gradientTransform="matrix(1 0 0 4.2875 0 23449.2148)" gradientUnits="userSpaceOnUse">
		<stop  offset="0" style="stop-color:#FFFFFF"/>
		<stop  offset="1" style="stop-color:#D3D6D5"/>
	</radialGradient>
	<path fill="url(#SVGID_6_)" d="M416.898,641.867c-3.171,291.199,9.879,468.479,26.764,529.837
		c2.64,9.604,8.583,17.791,16.761,24.836l27.405-100.161h340.154l22.675,103.964c10.654-7.841,18.353-17.262,21.482-28.639
		c16.884-61.357,29.934-238.638,26.753-529.837c-0.378-36.704,3.548-148.906,1.845-261.357H415.064
		C413.361,492.961,417.296,605.164,416.898,641.867z"/>
	
		<radialGradient id="SVGID_7_" cx="657.9004" cy="-3434.4048" r="315.9054" gradientTransform="matrix(1 0 0 2.3262 0 8639.4414)" gradientUnits="userSpaceOnUse">
		<stop  offset="0" style="stop-color:#F7F8F8"/>
		<stop  offset="1" style="stop-color:#A9ACAB"/>
	</radialGradient>
	<path fill="url(#SVGID_7_)" d="M422.741,224.625c-4.68,46.215-6.852,101.078-7.677,155.884h485.673
		c-0.836-54.806-3.007-109.669-7.678-155.884c-9.308-91.922-28.128-107.298-74.426-150.421c-10.217-9.522-23.99-17.459-40.12-23.878
		v42.231H537.288V50.326c-16.12,6.419-29.904,14.361-40.12,23.878C450.881,117.327,432.039,132.703,422.741,224.625z"/>
	<linearGradient id="SVGID_8_" gradientUnits="userSpaceOnUse" x1="656.0068" y1="323.4956" x2="625.8356" y2="-4.3658">
		<stop  offset="0" style="stop-color:#33C4F2"/>
		<stop  offset="0.594" style="stop-color:#2AACE3"/>
		<stop  offset="1" style="stop-color:#1E94D2"/>
	</linearGradient>
	<path fill="url(#SVGID_8_)" d="M893.06,224.625c-9.308-91.922-28.128-107.298-74.426-150.421
		c-10.217-9.522-23.99-17.459-40.12-23.878c-66.821-26.62-174.416-26.62-241.226,0c-16.12,6.419-29.904,14.361-40.12,23.878
		c-46.287,43.123-65.129,58.499-74.427,150.421c-4.68,46.215-6.852,101.078-7.677,155.884h485.673
		C899.901,325.704,897.73,270.841,893.06,224.625z"/>
	<linearGradient id="SVGID_9_" gradientUnits="userSpaceOnUse" x1="453.3926" y1="350.3789" x2="862.4102" y2="350.3789">
		<stop  offset="0" style="stop-color:#010101"/>
		<stop  offset="1" style="stop-color:#1B1C1C"/>
	</linearGradient>
	<path fill="url(#SVGID_9_)" d="M468.712,377.384c15.835-7.666,43.332-20.396,86.376-30.861c61.775-15.004,143.85-15.004,205.625,0
		c43.054,10.465,70.563,23.195,86.386,30.861c6.924,3.35,11.298,6.124,13.551,8.9l0.091-0.615c0,0,2.917-14.549,1.04-18.459
		c-1.632-3.392-6.342-6.578-14.682-10.614c-15.823-7.671-43.332-20.407-86.386-30.866c-61.774-15.009-143.849-15.009-205.625,0
		c-43.045,10.459-70.542,23.195-86.376,30.866c-8.34,4.036-13.06,7.222-14.691,10.614c-1.876,3.91,1.05,18.459,1.05,18.459
		l0.092,0.615C457.405,383.497,461.79,380.734,468.712,377.384z"/>
	<linearGradient id="SVGID_10_" gradientUnits="userSpaceOnUse" x1="455.1621" y1="444.0449" x2="860.6494" y2="444.0449">
		<stop  offset="0" style="stop-color:#373C3A"/>
		<stop  offset="1" style="stop-color:#1B1C1C"/>
	</linearGradient>
	<path fill="url(#SVGID_10_)" d="M561.96,528.711c44.923-7.049,146.958-7.049,191.882,0c40.74,6.399,69.899,18.945,80.676,24.108
		l26.132-166.535c-2.253-2.776-6.627-5.55-13.551-8.9c-15.823-7.666-43.332-20.396-86.386-30.861
		c-61.774-15.004-143.849-15.004-205.625,0c-43.045,10.465-70.542,23.195-86.376,30.861c-6.922,3.35-11.307,6.112-13.55,8.9
		l26.122,166.535C492.071,547.656,521.229,535.11,561.96,528.711z"/>
	<linearGradient id="SVGID_11_" gradientUnits="userSpaceOnUse" x1="655.54" y1="1231.9736" x2="655.54" y2="1138.2461">
		<stop  offset="0" style="stop-color:#33C4F2"/>
		<stop  offset="0.594" style="stop-color:#2AACE3"/>
		<stop  offset="1" style="stop-color:#1E94D2"/>
	</linearGradient>
	<path fill="url(#SVGID_11_)" d="M487.828,1096.379l-27.405,100.161c52.059,44.88,197.466,42.035,197.478,42.035
		c0.02,0,137.159,2.703,192.756-38.232l-22.675-103.964H487.828z"/>
	<linearGradient id="SVGID_12_" gradientUnits="userSpaceOnUse" x1="498.3315" y1="1056.0977" x2="817.4795" y2="1056.0977">
		<stop  offset="0" style="stop-color:#373C3A"/>
		<stop  offset="1" style="stop-color:#1B1C1C"/>
	</linearGradient>
	<path fill="url(#SVGID_12_)" d="M502.856,1004.68c-7.81,42.395-3.14,79.546-3.14,79.546s32.228,12.122,78.24,19.199
		c35.399,5.453,124.489,5.453,159.888,0c46.033-7.077,78.241-19.199,78.241-19.199s4.638-36.786-3.01-78.884
		c-27.14,5.893-77.884,13.794-155.164,13.794C585.931,1019.136,531.915,1010.645,502.856,1004.68z"/>
	<g>
		<linearGradient id="SVGID_13_" gradientUnits="userSpaceOnUse" x1="425.3213" y1="568.6177" x2="479.4785" y2="568.6177">
			<stop  offset="0" style="stop-color:#373C3A"/>
			<stop  offset="1" style="stop-color:#1B1C1C"/>
		</linearGradient>
		<path fill="url(#SVGID_13_)" d="M429.96,743.695l49.519,13.03l-5.923-172.192L440.776,380.51c0,0-17.994,52.329-15.15,127.337
			c1.804,47.43,6.892,112.737,6.811,154.835C432.345,702.667,431.039,729.769,429.96,743.695z"/>
		<linearGradient id="SVGID_14_" gradientUnits="userSpaceOnUse" x1="836.3232" y1="568.6177" x2="890.4883" y2="568.6177">
			<stop  offset="0" style="stop-color:#373C3A"/>
			<stop  offset="1" style="stop-color:#1B1C1C"/>
		</linearGradient>
		<path fill="url(#SVGID_14_)" d="M885.854,743.695l-49.53,13.03l5.913-172.192l32.809-204.024c0,0,17.975,52.329,15.141,127.337
			c-1.805,47.43-6.893,112.737-6.812,154.835C883.457,702.667,884.538,730.135,885.854,743.695z"/>
	</g>
	<g>
		<linearGradient id="SVGID_15_" gradientUnits="userSpaceOnUse" x1="427.2036" y1="885.1475" x2="483.6792" y2="885.1475">
			<stop  offset="0" style="stop-color:#373C3A"/>
			<stop  offset="1" style="stop-color:#1B1C1C"/>
		</linearGradient>
		<path fill="url(#SVGID_15_)" d="M428.939,759.62l50.764,16.64l3.976,143.981c0,0-3.099,17.882-16.404,47.389
			c-15.141,33.644-38.336,43.045-38.336,43.045S425.034,813.535,428.939,759.62z"/>
		<linearGradient id="SVGID_16_" gradientUnits="userSpaceOnUse" x1="832.1221" y1="885.1475" x2="888.5977" y2="885.1475">
			<stop  offset="0" style="stop-color:#373C3A"/>
			<stop  offset="1" style="stop-color:#1B1C1C"/>
		</linearGradient>
		<path fill="url(#SVGID_16_)" d="M886.861,759.62l-50.763,16.64l-3.977,143.981c0,0,3.1,17.882,16.395,47.389
			c15.161,33.644,38.345,43.045,38.345,43.045S890.768,813.535,886.861,759.62z"/>
	</g>
	<g>
		
			<radialGradient id="SVGID_17_" cx="483.832" cy="141.2881" r="38.895" gradientTransform="matrix(1 0 0 1.1697 0 -93.291)" gradientUnits="userSpaceOnUse">
			<stop  offset="0" style="stop-color:#FFFFFF"/>
			<stop  offset="1" style="stop-color:#A0A2A1"/>
		</radialGradient>
		<path fill="url(#SVGID_17_)" d="M459.088,103.696l58.807-48.077c6.189-5.058,9.891-12.715,10.828-20.826
			c-16.772,6.613-31.118,14.763-41.792,24.485c-20.696,18.816-36.203,32.56-47.991,49.24
			C445.681,110.148,452.98,108.681,459.088,103.696z"/>
		
			<radialGradient id="SVGID_18_" cx="831.9746" cy="141.2881" r="38.8967" gradientTransform="matrix(1 0 0 1.1697 0 -93.291)" gradientUnits="userSpaceOnUse">
			<stop  offset="0" style="stop-color:#FFFFFF"/>
			<stop  offset="1" style="stop-color:#A0A2A1"/>
		</radialGradient>
		<path fill="url(#SVGID_18_)" d="M797.915,55.619l58.81,48.077c6.097,4.985,13.386,6.453,20.145,4.822
			c-11.784-16.68-27.303-30.424-47.979-49.24c-10.695-9.722-25.031-17.872-41.812-24.485
			C788.026,42.904,791.716,50.561,797.915,55.619z"/>
	</g>
	<path fill="#941B1E" d="M517.386,1238.606c-23.195,4.386-33.401-10.88-54.362-10.88c-3.762,0-6.821,0.827-9.339,2.131
		c21.318,14.969,53.445,24.235,85.958,29.956C537.868,1249.841,532.688,1235.732,517.386,1238.606z"/>
	<path fill="#941B1E" d="M788.139,1238.606c-16.221-3.059-21.084,12.999-22.563,22.95c33.299-5.108,67.371-13.683,90.995-28.067
		c-3.059-3.335-7.523-5.763-14.06-5.763C821.528,1227.727,811.322,1242.992,788.139,1238.606z"/>
	<linearGradient id="SVGID_19_" gradientUnits="userSpaceOnUse" x1="653.1406" y1="401.7119" x2="772.1647" y2="486.3448">
		<stop  offset="0" style="stop-color:#373C3A"/>
		<stop  offset="1" style="stop-color:#010101"/>
	</linearGradient>
	<path fill="url(#SVGID_19_)" d="M847.099,377.384c-15.823-7.666-43.332-20.396-86.386-30.861
		c-15.079-3.661-31.382-6.414-48.276-8.294c-43.392,52.211-94.789,146.887-115.791,186.991
		c50.467-3.241,121.684-2.084,157.196,3.491c40.74,6.399,69.899,18.945,80.676,24.108l26.132-166.535
		C858.396,383.508,854.022,380.734,847.099,377.384z"/>
	<linearGradient id="SVGID_20_" gradientUnits="userSpaceOnUse" x1="535.6987" y1="560.1748" x2="1009.6155" y2="1338.052">
		<stop  offset="0" style="stop-color:#F7F8F8"/>
		<stop  offset="1" style="stop-color:#DCDBDB"/>
	</linearGradient>
	<path fill="url(#SVGID_20_)" d="M657.901,559.716c-125.946-3.191-168.217,22.375-168.217,22.375s1.53,340.881,11.145,374.751
		c6.524,22.96,85.866,33.125,136.272,37.296H678.7c50.416-4.171,129.757-14.336,136.263-37.296
		c9.624-33.87,11.155-374.751,11.155-374.751S783.847,556.524,657.901,559.716z"/>
	<path fill="#484848" d="M517.723,66.517c0,0-75.815,42.775-83.89,137.834c-8.237,97.112-7.023,146.031-7.023,146.031
		S452.787,118.066,517.723,66.517z"/>
	<linearGradient id="SVGID_21_" gradientUnits="userSpaceOnUse" x1="597.4336" y1="598.3384" x2="738.8128" y2="1009.848">
		<stop  offset="0" style="stop-color:#33C4F2"/>
		<stop  offset="0.594" style="stop-color:#2AACE3"/>
		<stop  offset="1" style="stop-color:#1E94D2"/>
	</linearGradient>
	<rect x="613.377" y="530.844" fill="url(#SVGID_21_)" width="88.864" height="486.458"/>
	<path fill="#484848" d="M798.497,66.517c0,0,75.834,42.775,83.898,137.834c8.238,97.112,7.036,146.031,7.036,146.031
		S863.441,118.066,798.497,66.517z"/>
	<g>
		<linearGradient id="SVGID_22_" gradientUnits="userSpaceOnUse" x1="867.6475" y1="401.3242" x2="916.1638" y2="495.2602">
			<stop  offset="0" style="stop-color:#373C3A"/>
			<stop  offset="1" style="stop-color:#1B1C1C"/>
		</linearGradient>
		<path fill="url(#SVGID_22_)" d="M873.606,393.218c0,0,19.658,4.349,20.106,23.154c0.449,18.811-19.668,56.962-20.106,32.824
			C873.159,425.058,871.813,400.457,873.606,393.218z"/>
		<linearGradient id="SVGID_23_" gradientUnits="userSpaceOnUse" x1="886.2246" y1="429.2676" x2="943.9153" y2="429.2676">
			<stop  offset="0" style="stop-color:#FFFFFF"/>
			<stop  offset="1" style="stop-color:#D3D6D5"/>
		</linearGradient>
		<path fill="url(#SVGID_23_)" d="M941.99,434.464c-4.324-6.515-43.923-20.264-43.923-20.264
			c-7.789-2.871-10.472,4.878-11.379,11.443l56.759,19.306C944.121,441.993,944.345,437.997,941.99,434.464z"/>
		<linearGradient id="SVGID_24_" gradientUnits="userSpaceOnUse" x1="886.2334" y1="437.4199" x2="943.9182" y2="437.4199">
			<stop  offset="0" style="stop-color:#373C3A"/>
			<stop  offset="1" style="stop-color:#1B1C1C"/>
		</linearGradient>
		<path fill="url(#SVGID_24_)" d="M886.688,425.644c-0.591,4.278-0.438,8.051-0.438,8.051l55.739,15.501
			c0,0,0.885-1.764,1.457-4.247L886.688,425.644z"/>
	</g>
	<g>
		<linearGradient id="SVGID_25_" gradientUnits="userSpaceOnUse" x1="431.3643" y1="409.1548" x2="473.6846" y2="502.0531">
			<stop  offset="0" style="stop-color:#373C3A"/>
			<stop  offset="1" style="stop-color:#1B1C1C"/>
		</linearGradient>
		<path fill="url(#SVGID_25_)" d="M441.97,391.922c0,0-20.932,4.345-21.411,23.155c-0.47,18.805,20.93,56.957,21.411,32.819
			C442.438,423.754,443.867,399.156,441.97,391.922z"/>
		<linearGradient id="SVGID_26_" gradientUnits="userSpaceOnUse" x1="371.7144" y1="428.4004" x2="429.4016" y2="428.4004">
			<stop  offset="0" style="stop-color:#D3D6D5"/>
			<stop  offset="1" style="stop-color:#FFFFFF"/>
		</linearGradient>
		<path fill="url(#SVGID_26_)" d="M417.551,412.904c0,0-39.59,13.751-43.923,20.254c-2.579,3.89-2.07,8.36-1.244,11.353
			l56.656-19.422C428.236,418.384,425.636,409.923,417.551,412.904z"/>
		<linearGradient id="SVGID_27_" gradientUnits="userSpaceOnUse" x1="371.7104" y1="436.4932" x2="429.397" y2="436.4932">
			<stop  offset="0" style="stop-color:#373C3A"/>
			<stop  offset="1" style="stop-color:#1B1C1C"/>
		</linearGradient>
		<path fill="url(#SVGID_27_)" d="M372.385,444.512c0.551,2.018,1.244,3.385,1.244,3.385l55.75-15.502c0,0,0.142-3.344-0.337-7.305
			L372.385,444.512z"/>
	</g>
	<path fill="#5A5A5A" d="M403.084,640.308c-2.906,0-5.241,2.615-5.241,5.835v48.42c0,3.231,2.335,5.841,5.241,5.841V640.308z"/>
	<path fill="#5A5A5A" d="M405.704,882.559c-2.896,0-5.241,2.621-5.241,5.852v48.398c0,3.231,2.345,5.852,5.241,5.852V882.559z"/>
	<linearGradient id="SVGID_28_" gradientUnits="userSpaceOnUse" x1="486.3325" y1="1053.9619" x2="829.4785" y2="1053.9619">
		<stop  offset="0" style="stop-color:#010101"/>
		<stop  offset="1" style="stop-color:#1B1C1C"/>
	</linearGradient>
	<path fill="url(#SVGID_28_)" d="M821.499,1003.396c-1.326-5.036-2.865-10.115-4.661-15.142c0,0-2.272,0.93-6.922,2.377
		c-17.037,5.322-65.974,17.761-152.004,17.761c-78.822,0-133.38-12.938-151.935-18.066c-4.598-1.266-7.016-2.071-7.016-2.071
		c-1.733,4.865-3.221,9.768-4.527,14.632c-12.794,47.838-6.607,93.493-6.607,93.493s34.635,12.134,84.124,19.208
		c38.06,5.444,133.838,5.444,171.906,0c49.478-7.074,84.124-19.208,84.124-19.208S834.131,1051.028,821.499,1003.396z
		 M816.086,1084.226c0,0-32.208,12.122-78.241,19.199c-35.398,5.453-124.489,5.453-159.888,0
		c-46.013-7.077-78.24-19.199-78.24-19.199s-4.67-37.151,3.14-79.546c29.059,5.965,83.074,14.456,155.056,14.456
		c77.28,0,128.024-7.901,155.164-13.794C820.724,1047.439,816.086,1084.226,816.086,1084.226z"/>
	<path fill="#5A5A5A" d="M912.727,640.308c2.887,0,5.232,2.615,5.232,5.835v48.42c0,3.231-2.346,5.841-5.232,5.841V640.308z"/>
	<linearGradient id="SVGID_29_" gradientUnits="userSpaceOnUse" x1="481.2837" y1="548.1924" x2="834.5176" y2="548.1924">
		<stop  offset="0" style="stop-color:#010101"/>
		<stop  offset="1" style="stop-color:#1B1C1C"/>
	</linearGradient>
	<path fill="url(#SVGID_29_)" d="M561.96,528.711c-40.731,6.399-69.889,18.945-80.676,24.108l3.16,20.141
		c0,0,31.84-18.269,81.645-26.442c42.995-7.055,140.639-7.055,183.622,0c49.796,8.173,81.646,26.442,81.646,26.442l3.16-20.141
		c-10.776-5.163-39.936-17.709-80.676-24.108C708.918,521.662,606.883,521.662,561.96,528.711z"/>
	<path fill="#5A5A5A" d="M910.117,882.559c2.886,0,5.229,2.621,5.229,5.852v48.398c0,3.231-2.344,5.852-5.229,5.852V882.559z"/>
	<g>
		<g>
			<g>
				<path fill="#09252D" d="M544.058,296.916c8.412-0.744,12.621-6.057,21.033-6.8c0.683-0.061,1.223-0.667,1.223-1.433
					c0-0.758-0.54-1.392-1.223-1.326c-8.412,0.74-12.622,6.051-21.033,6.797c-0.683,0.061-1.233,0.672-1.233,1.431
					C542.824,296.351,543.375,296.977,544.058,296.916z"/>
				<path fill="#09252D" d="M565.08,292.878c-8.401,0.745-12.611,6.058-21.013,6.797c-0.692,0.066-1.243,0.672-1.243,1.438
					c0,0.77,0.55,1.385,1.233,1.324c8.412-0.744,12.621-6.051,21.022-6.795c0.693-0.061,1.233-0.672,1.233-1.438
					C566.313,293.445,565.763,292.819,565.08,292.878z"/>
				<path fill="#09252D" d="M565.08,298.409c-8.401,0.744-12.611,6.051-21.022,6.801c-0.683,0.052-1.233,0.668-1.233,1.433
					c0,0.76,0.55,1.386,1.233,1.32c8.412-0.733,12.621-6.058,21.033-6.79c0.683-0.061,1.223-0.683,1.223-1.444
					C566.313,298.966,565.773,298.349,565.08,298.409z"/>
			</g>
		</g>
		<g>
			<g>
				<path fill="#09252D" d="M771.56,296.916c-8.411-0.744-12.61-6.057-21.021-6.8c-0.694-0.061-1.234-0.667-1.234-1.433
					c0-0.758,0.54-1.392,1.234-1.326c8.411,0.74,12.61,6.051,21.021,6.797c0.684,0.061,1.234,0.672,1.234,1.431
					C772.794,296.351,772.243,296.977,771.56,296.916z"/>
				<path fill="#09252D" d="M750.538,292.878c8.411,0.745,12.61,6.058,21.013,6.797c0.692,0.066,1.243,0.672,1.243,1.438
					c0,0.77-0.551,1.385-1.234,1.324c-8.411-0.744-12.61-6.051-21.021-6.795c-0.694-0.061-1.234-0.672-1.234-1.438
					C749.304,293.445,749.854,292.819,750.538,292.878z"/>
				<path fill="#09252D" d="M750.538,298.409c8.411,0.744,12.61,6.051,21.021,6.801c0.684,0.052,1.245,0.668,1.245,1.433
					c0,0.76-0.562,1.386-1.245,1.32c-8.411-0.733-12.61-6.058-21.021-6.79c-0.694-0.061-1.234-0.683-1.234-1.444
					C749.304,298.966,749.844,298.349,750.538,298.409z"/>
			</g>
		</g>
	</g>
	<linearGradient id="SVGID_30_" gradientUnits="userSpaceOnUse" x1="580.2515" y1="1264.4063" x2="735.377" y2="1264.4063">
		<stop  offset="0" style="stop-color:#373C3A"/>
		<stop  offset="1" style="stop-color:#1B1C1C"/>
	</linearGradient>
	<path fill="url(#SVGID_30_)" d="M725.793,1259.813H589.826c-3.956,0-7.423,2.182-9.574,5.515c42.657,4.304,77.65,3.632,77.65,3.632
		c0.02,0,34.899,0.681,77.476-3.601C733.235,1262.007,729.758,1259.813,725.793,1259.813z"/>
	<linearGradient id="SVGID_31_" gradientUnits="userSpaceOnUse" x1="587.5781" y1="916.959" x2="665.3413" y2="1036.2042">
		<stop  offset="0" style="stop-color:#373C3A"/>
		<stop  offset="1" style="stop-color:#010101"/>
	</linearGradient>
	<path fill="url(#SVGID_31_)" d="M813.076,1005.342c-27.14,5.893-77.884,13.794-155.164,13.794c-15.804,0-30.679-0.427-44.678-1.141
		c-44.33,15.569-71.206,64.426-77.456,76.937c11.888,2.956,26.162,6.034,42.179,8.493c35.399,5.453,124.489,5.453,159.888,0
		c46.033-7.077,78.241-19.199,78.241-19.199S820.724,1047.439,813.076,1005.342z"/>
	<radialGradient id="SVGID_32_" cx="552.02" cy="710.0752" r="42.3163" gradientUnits="userSpaceOnUse">
		<stop  offset="0" style="stop-color:#F37F5F"/>
		<stop  offset="0.3927" style="stop-color:#EB2227"/>
		<stop  offset="1" style="stop-color:#B21F24"/>
	</radialGradient>
	<path fill="url(#SVGID_32_)" d="M525.296,677.954c-4.189,0-7.574,3.385-7.574,7.564v49.103c0,4.19,3.384,7.575,7.574,7.575h61.021
		v-64.242H525.296z"/>
	<linearGradient id="SVGID_33_" gradientUnits="userSpaceOnUse" x1="657.4834" y1="674.6748" x2="657.4834" y2="743.8283">
		<stop  offset="0" style="stop-color:#373C3A"/>
		<stop  offset="0.1587" style="stop-color:#383E3B"/>
		<stop  offset="0.3993" style="stop-color:#010101"/>
		<stop  offset="0.7357" style="stop-color:#5D6262"/>
		<stop  offset="1" style="stop-color:#1B1C1C"/>
	</linearGradient>
	<rect x="586.317" y="677.954" fill="url(#SVGID_33_)" width="142.331" height="64.242"/>
	<radialGradient id="SVGID_34_" cx="763.5723" cy="710.0752" r="43.6387" gradientUnits="userSpaceOnUse">
		<stop  offset="0" style="stop-color:#33C4F2"/>
		<stop  offset="0.3491" style="stop-color:#2AACE3"/>
		<stop  offset="1" style="stop-color:#385FAC"/>
	</radialGradient>
	<path fill="url(#SVGID_34_)" d="M790.933,677.954h-62.284v64.242h62.284c4.18,0,7.564-3.385,7.564-7.575v-49.103
		C798.497,681.339,795.112,677.954,790.933,677.954z"/>
	
		<radialGradient id="SVGID_35_" cx="656.1816" cy="77.1743" r="13.197" gradientTransform="matrix(1.288 0.5607 -0.3991 0.9169 -55.8052 -412.4551)" gradientUnits="userSpaceOnUse">
		<stop  offset="0" style="stop-color:#B894C5"/>
		<stop  offset="0.0093" style="stop-color:#B08EBA"/>
		<stop  offset="0.0941" style="stop-color:#7E6882"/>
		<stop  offset="0.1789" style="stop-color:#584A59"/>
		<stop  offset="0.2617" style="stop-color:#3C343C"/>
		<stop  offset="0.3422" style="stop-color:#262227"/>
		<stop  offset="0.4197" style="stop-color:#151315"/>
		<stop  offset="0.493" style="stop-color:#060607"/>
		<stop  offset="0.5576" style="stop-color:#010101"/>
	</radialGradient>
	<path fill="url(#SVGID_35_)" d="M771.62,31.919c-2.231,5.138-9.888,6.754-17.106,3.618c-7.229-3.145-11.268-9.858-9.023-14.997
		c2.233-5.139,9.9-6.754,17.13-3.615C769.838,20.067,773.866,26.78,771.62,31.919z"/>
	
		<radialGradient id="SVGID_36_" cx="723.125" cy="83.2002" r="8.2714" gradientTransform="matrix(2.1978 -0.5137 0.2905 1.2428 -1056.8477 291.812)" gradientUnits="userSpaceOnUse">
		<stop  offset="0" style="stop-color:#FFFFFF"/>
		<stop  offset="0.0093" style="stop-color:#EEEDED"/>
		<stop  offset="0.0941" style="stop-color:#9E9B9B"/>
		<stop  offset="0.1789" style="stop-color:#676464"/>
		<stop  offset="0.2617" style="stop-color:#444141"/>
		<stop  offset="0.3422" style="stop-color:#2A2929"/>
		<stop  offset="0.4197" style="stop-color:#171616"/>
		<stop  offset="0.493" style="stop-color:#070707"/>
		<stop  offset="0.5576" style="stop-color:#010101"/>
	</radialGradient>
	<path fill="url(#SVGID_36_)" d="M570.585,20.475c1.02,4.373-4.404,9.37-12.142,11.174c-7.718,1.811-14.804-0.265-15.813-4.633
		c-1.02-4.37,4.394-9.371,12.132-11.175C562.481,14.032,569.565,16.11,570.585,20.475z"/>
	<g>
		<path fill="#EDEDED" d="M759.212,168.641v-36.367h8.831v103.321h-15.436c-3.182,0-5.914-0.811-8.238-2.433
			c-2.324-1.621-4.222-3.884-5.73-6.784c-1.509-2.906-2.63-6.389-3.345-10.437c-0.732-4.047-1.102-8.476-1.102-13.29
			c0-5.001,0.39-9.583,1.164-13.754c0.753-4.169,1.917-7.752,3.446-10.75c1.529-3.004,3.424-5.339,5.73-7.005
			c2.304-1.667,4.973-2.502,8.074-2.502H759.212z M759.212,183.649h-6.604c-1.632,0-3.039,0.438-4.243,1.32
			c-1.202,0.882-2.201,2.145-2.976,3.788c-0.796,1.64-1.386,3.644-1.775,6c-0.387,2.361-0.591,4.99-0.591,7.896
			c0,2.764,0.204,5.267,0.591,7.504c0.39,2.238,0.979,4.145,1.775,5.714c0.774,1.576,1.773,2.773,2.976,3.609
			c1.204,0.833,2.611,1.25,4.243,1.25h6.604V183.649z"/>
		<path fill="#EDEDED" d="M682.523,183.934c0-7.576,0.57-14.589,1.733-21.044c1.161-6.452,2.792-12.041,4.894-16.755
			c2.1-4.716,4.628-8.397,7.564-11.038c2.958-2.644,6.22-3.964,9.809-3.964c3.588,0,6.872,1.32,9.828,3.964
			c2.956,2.641,5.485,6.322,7.606,11.038c2.1,4.714,3.73,10.303,4.893,16.755c1.162,6.455,1.755,13.469,1.755,21.044
			s-0.593,14.584-1.755,21.043c-1.162,6.454-2.793,12.036-4.893,16.757c-2.121,4.716-4.65,8.392-7.606,11.038
			c-2.956,2.645-6.24,3.965-9.828,3.965c-3.589,0-6.851-1.335-9.809-4.001c-2.937-2.667-5.465-6.346-7.564-11.042
			c-2.102-4.69-3.732-10.263-4.894-16.717C683.094,198.519,682.523,191.51,682.523,183.934z M691.576,183.934
			c0,5.668,0.348,10.75,1.041,15.253c0.673,4.501,1.671,8.323,2.956,11.469c1.283,3.145,2.854,5.546,4.711,7.218
			c1.833,1.669,3.936,2.5,6.239,2.5c2.323,0,4.404-0.831,6.261-2.5c1.854-1.672,3.445-4.073,4.751-7.218
			c1.283-3.146,2.304-6.968,2.996-11.469c0.694-4.503,1.04-9.585,1.04-15.253c0-5.67-0.346-10.755-1.04-15.256
			c-0.692-4.502-1.713-8.311-2.996-11.43c-1.306-3.12-2.897-5.516-4.751-7.184c-1.856-1.666-3.938-2.497-6.261-2.497
			c-2.304,0-4.406,0.831-6.239,2.497c-1.856,1.668-3.428,4.064-4.711,7.184c-1.285,3.119-2.283,6.927-2.956,11.43
			C691.924,173.179,691.576,178.264,691.576,183.934z"/>
		<path fill="#EDEDED" d="M667.414,148.138h-18.986v-15.864h27.793v103.321h-8.807V148.138z"/>
		<path fill="#EDEDED" d="M633.054,132.274h8.85v103.321h-8.85V132.274z"/>
		<path fill="#EDEDED" d="M590.457,156.642c-0.49,0-0.897-0.409-1.266-1.219l-3.465-8.218c1.917-5.189,4.283-9.165,7.097-11.927
			c2.813-2.764,6.178-4.145,10.113-4.145c3.527,0,6.688,1.309,9.502,3.93c2.813,2.615,5.2,6.259,7.198,10.929
			c1.978,4.67,3.508,10.243,4.567,16.721c1.06,6.48,1.591,13.551,1.591,21.223c0,7.764-0.591,14.871-1.773,21.33
			c-1.182,6.453-2.836,12.014-4.976,16.684c-2.142,4.665-4.711,8.3-7.688,10.895c-2.998,2.595-6.28,3.895-9.889,3.895
			c-3.528,0-6.607-1.228-9.239-3.681c-2.629-2.451-4.893-5.703-6.769-9.751l2.958-8.933c0.162-0.571,0.387-1.07,0.672-1.503
			c0.266-0.427,0.654-0.643,1.121-0.643c0.51,0,1.021,0.429,1.551,1.291c0.53,0.854,1.182,1.782,1.998,2.783
			c0.815,1,1.836,1.932,3.059,2.788c1.243,0.856,2.814,1.286,4.71,1.286c2.223,0,4.281-0.848,6.158-2.535
			c1.857-1.692,3.466-4.108,4.812-7.253c1.346-3.145,2.386-6.968,3.142-11.47c0.753-4.503,1.141-9.563,1.141-15.182
			c0-5.812-0.388-10.98-1.141-15.507c-0.755-4.526-1.775-8.334-3.059-11.43c-1.285-3.099-2.813-5.47-4.568-7.11
			c-1.733-1.643-3.61-2.468-5.628-2.468c-1.202,0-2.283,0.147-3.263,0.433c-0.978,0.286-1.877,0.735-2.69,1.355
			c-0.816,0.618-1.591,1.418-2.326,2.393c-0.733,0.978-1.467,2.18-2.182,3.609c-0.223,0.427-0.447,0.773-0.692,1.035
			C590.987,156.509,590.722,156.642,590.457,156.642z"/>
		<path fill="#EDEDED" d="M549.817,235.595v-15.293h21.024v-28.649h-16.559v-14.794h16.559v-29.221h-21.024v-15.363h29.915v103.321
			H549.817z"/>
	</g>
	<radialGradient id="SVGID_37_" cx="750.1299" cy="696.6875" r="47.0592" gradientUnits="userSpaceOnUse">
		<stop  offset="0" style="stop-color:#B894C5"/>
		<stop  offset="0.0093" style="stop-color:#B08EBA"/>
		<stop  offset="0.0941" style="stop-color:#7E6882"/>
		<stop  offset="0.1789" style="stop-color:#584A59"/>
		<stop  offset="0.2617" style="stop-color:#3C343C"/>
		<stop  offset="0.3422" style="stop-color:#262227"/>
		<stop  offset="0.4197" style="stop-color:#151315"/>
		<stop  offset="0.493" style="stop-color:#060607"/>
		<stop  offset="0.5576" style="stop-color:#010101"/>
	</radialGradient>
	<path fill="url(#SVGID_37_)" d="M786.313,696.693c0,19.983-16.2,36.175-36.185,36.175s-36.183-16.191-36.183-36.175
		s16.198-36.186,36.183-36.186S786.313,676.71,786.313,696.693z"/>
	<radialGradient id="SVGID_38_" cx="774.5273" cy="720.541" r="47.0617" gradientUnits="userSpaceOnUse">
		<stop  offset="0" style="stop-color:#B894C5"/>
		<stop  offset="0.0093" style="stop-color:#B08EBA"/>
		<stop  offset="0.0941" style="stop-color:#7E6882"/>
		<stop  offset="0.1789" style="stop-color:#584A59"/>
		<stop  offset="0.2617" style="stop-color:#3C343C"/>
		<stop  offset="0.3422" style="stop-color:#262227"/>
		<stop  offset="0.4197" style="stop-color:#151315"/>
		<stop  offset="0.493" style="stop-color:#060607"/>
		<stop  offset="0.5576" style="stop-color:#010101"/>
	</radialGradient>
	<path fill="url(#SVGID_38_)" d="M810.711,720.541c0,19.983-16.2,36.185-36.186,36.185c-19.98,0-36.182-16.201-36.182-36.185
		c0-19.974,16.201-36.186,36.182-36.186C794.511,684.355,810.711,700.567,810.711,720.541z"/>
	<radialGradient id="SVGID_39_" cx="549.2007" cy="720.541" r="47.0589" gradientUnits="userSpaceOnUse">
		<stop  offset="0" style="stop-color:#FFFFFF"/>
		<stop  offset="0.0093" style="stop-color:#EEEDED"/>
		<stop  offset="0.0941" style="stop-color:#9E9B9B"/>
		<stop  offset="0.1789" style="stop-color:#676464"/>
		<stop  offset="0.2617" style="stop-color:#444141"/>
		<stop  offset="0.3422" style="stop-color:#2A2929"/>
		<stop  offset="0.4197" style="stop-color:#171616"/>
		<stop  offset="0.493" style="stop-color:#070707"/>
		<stop  offset="0.5576" style="stop-color:#010101"/>
	</radialGradient>
	<path fill="url(#SVGID_39_)" d="M585.38,720.541c0,19.983-16.189,36.185-36.174,36.185c-19.992,0-36.185-16.201-36.185-36.185
		c0-19.974,16.192-36.186,36.185-36.186C569.19,684.355,585.38,700.567,585.38,720.541z"/>
	<radialGradient id="SVGID_40_" cx="570.979" cy="700.4102" r="47.0544" gradientUnits="userSpaceOnUse">
		<stop  offset="0" style="stop-color:#FFFFFF"/>
		<stop  offset="0.0093" style="stop-color:#EEEDED"/>
		<stop  offset="0.0941" style="stop-color:#9E9B9B"/>
		<stop  offset="0.1789" style="stop-color:#676464"/>
		<stop  offset="0.2617" style="stop-color:#444141"/>
		<stop  offset="0.3422" style="stop-color:#2A2929"/>
		<stop  offset="0.4197" style="stop-color:#171616"/>
		<stop  offset="0.493" style="stop-color:#070707"/>
		<stop  offset="0.5576" style="stop-color:#010101"/>
	</radialGradient>
	<path fill="url(#SVGID_40_)" d="M607.157,700.403c0,19.984-16.19,36.186-36.174,36.186c-19.983,0-36.183-16.201-36.183-36.186
		c0-19.98,16.199-36.173,36.183-36.173C590.967,664.23,607.157,680.423,607.157,700.403z"/>
	<g>
		<path fill="#EAEAEA" d="M565.335,1182.653v22.717h-8.443v-64.549h14.785c3.037,0,5.668,0.499,7.871,1.519
			c2.223,1.01,4.057,2.428,5.506,4.241c1.447,1.816,2.508,3.986,3.2,6.515c0.694,2.54,1.041,5.303,1.041,8.31
			c0,3.121-0.366,5.986-1.101,8.584c-0.735,2.612-1.836,4.854-3.304,6.731c-1.467,1.875-3.303,3.322-5.485,4.362
			c-2.201,1.052-4.771,1.57-7.728,1.57H565.335z M565.335,1173.274h6.342c1.549,0,2.895-0.267,4.057-0.816
			c1.142-0.552,2.101-1.346,2.854-2.376c0.755-1.029,1.305-2.273,1.694-3.741c0.367-1.479,0.549-3.121,0.549-4.936
			c0-1.733-0.182-3.293-0.549-4.689c-0.389-1.408-0.939-2.59-1.694-3.568c-0.753-0.989-1.712-1.732-2.854-2.264
			c-1.162-0.51-2.508-0.774-4.057-0.774h-6.342V1173.274z"/>
		<path fill="#EAEAEA" d="M637.825,1173.101c0,4.73-0.571,9.114-1.672,13.143c-1.101,4.036-2.67,7.523-4.67,10.47
			c-2.018,2.947-4.423,5.25-7.259,6.902c-2.813,1.651-5.953,2.467-9.378,2.467c-3.427,0-6.567-0.815-9.401-2.467
			c-2.833-1.652-5.261-3.955-7.279-6.902c-2.02-2.946-3.589-6.434-4.71-10.47c-1.102-4.028-1.652-8.412-1.652-13.143
			c0-4.74,0.551-9.116,1.652-13.144c1.121-4.036,2.69-7.522,4.71-10.479c2.019-2.937,4.446-5.24,7.279-6.894
			c2.834-1.651,5.974-2.476,9.401-2.476c3.425,0,6.565,0.824,9.378,2.498c2.836,1.671,5.241,3.965,7.259,6.892
			c2,2.937,3.569,6.423,4.67,10.459C637.254,1163.984,637.825,1168.36,637.825,1173.101z M629.159,1173.101
			c0-3.539-0.326-6.72-0.998-9.533c-0.654-2.814-1.591-5.199-2.836-7.168c-1.243-1.969-2.733-3.467-4.506-4.506
			c-1.773-1.04-3.751-1.561-5.974-1.561c-2.222,0-4.222,0.521-5.996,1.561c-1.773,1.039-3.304,2.537-4.547,4.506
			c-1.245,1.969-2.202,4.354-2.876,7.168c-0.651,2.813-0.998,5.994-0.998,9.533c0,3.537,0.347,6.719,0.998,9.532
			c0.674,2.814,1.632,5.189,2.876,7.136c1.243,1.96,2.773,3.447,4.547,4.486c1.773,1.04,3.773,1.571,5.996,1.571
			c2.223,0,4.201-0.531,5.974-1.571c1.773-1.039,3.264-2.526,4.506-4.486c1.245-1.946,2.182-4.321,2.836-7.136
			C628.833,1179.819,629.159,1176.638,629.159,1173.101z"/>
		<path fill="#EAEAEA" d="M651.346,1195.46h18.168v9.91h-26.609v-64.549h8.441V1195.46z"/>
		<path fill="#EAEAEA" d="M683.298,1205.37h-8.482v-64.549h8.482V1205.37z"/>
		<path fill="#EAEAEA" d="M723.142,1190.157c0.448,0,0.856,0.245,1.184,0.753l3.323,5.14c-1.836,3.243-4.1,5.729-6.79,7.443
			c-2.692,1.733-5.914,2.589-9.686,2.589c-3.364,0-6.402-0.815-9.075-2.446c-2.69-1.641-4.995-3.915-6.893-6.83
			c-1.915-2.918-3.364-6.403-4.382-10.451c-1.021-4.047-1.531-8.463-1.531-13.254c0-4.854,0.571-9.289,1.692-13.326
			c1.142-4.038,2.733-7.503,4.771-10.42c2.061-2.915,4.508-5.198,7.362-6.81c2.854-1.632,6.016-2.437,9.462-2.437
			c3.385,0,6.32,0.764,8.851,2.293c2.507,1.539,4.667,3.568,6.482,6.097l-2.834,5.588c-0.163,0.345-0.388,0.662-0.631,0.938
			c-0.266,0.266-0.635,0.397-1.102,0.397c-0.47,0-0.96-0.275-1.469-0.807c-0.511-0.529-1.143-1.121-1.918-1.732
			c-0.772-0.631-1.753-1.214-2.935-1.756c-1.183-0.527-2.673-0.794-4.506-0.794c-2.122,0-4.1,0.529-5.875,1.581
			c-1.793,1.06-3.322,2.569-4.627,4.537c-1.286,1.958-2.283,4.343-2.999,7.157c-0.734,2.814-1.081,5.975-1.081,9.492
			c0,3.629,0.347,6.86,1.081,9.686c0.716,2.824,1.692,5.209,2.938,7.147c1.223,1.937,2.67,3.404,4.363,4.436
			c1.672,1.027,3.467,1.539,5.384,1.539c1.162,0,2.202-0.082,3.139-0.265c0.918-0.184,1.774-0.47,2.569-0.847
			c0.776-0.388,1.53-0.888,2.223-1.499c0.694-0.613,1.407-1.367,2.081-2.254c0.225-0.275,0.428-0.479,0.672-0.642
			C722.611,1190.239,722.857,1190.157,723.142,1190.157z"/>
		<path fill="#EAEAEA" d="M761.09,1140.821v9.553h-20.126v17.903h15.864v9.237h-15.864v18.262h20.126v9.594h-28.629v-64.549H761.09z
			"/>
	</g>
</g>
</svg>
