<?xml version="1.0" encoding="utf-8"?>
<!-- Generator: Adobe Illustrator 19.1.0, SVG Export Plug-In . SVG Version: 6.00 Build 0)  -->
<svg version="1.1" id="Capa_1" xmlns="http://www.w3.org/2000/svg" xmlns:xlink="http://www.w3.org/1999/xlink" x="0px" y="0px"
	 viewBox="-223 25 512 512" style="enable-background:new -223 25 512 512;" xml:space="preserve">
<style type="text/css">
	.st0{fill:#006DF0;}
</style>
<g>
	<path id="path4400-3-2" class="st0" d="M162.4,235.3c0,0,0-0.2,0-0.3c0-1-0.1-4.7-0.6-6.7c-0.5-2.2-1.2-4.5-2.4-6.5
		c-1.8-3-4.3-5.4-6.9-7.7c-2.1-1.9-4.6-3.4-7-5c-1-0.6-1.9-1.5-3-1.8c-0.2,0-0.3-0.1-0.4-0.1c-0.1-36.8-0.3-73.6-1.1-110.4
		c-0.7-22.1-11.8-43.8-30.6-55.9c-6-5.2-13.2-8.5-20.9-10c-23.3-8.6-48.6-5-72.9-5.8c-19.4-0.7-38.8,3.3-56.1,12.1
		c-16.1,10.2-30.4,25.4-33.4,44.9c-5.7,27.3-2.5,55.4-3.4,83.1c0,14,0,27.9,0,41.9c-0.1,0-0.2,0.1-0.3,0.1c-1.1,0.3-2,1.2-3,1.8
		c-2.4,1.6-4.9,3-7,4.9c-2.6,2.3-5.1,4.8-6.9,7.7c-1.2,2-1.9,4.2-2.4,6.5c-0.5,2-0.5,5.7-0.6,6.7c-0.1,0.5,0,1,0.2,1.3
		c0.2,0.3,0.5,0.4,1.1,0.5c0.6,0.1,0.8,0,2.2-0.4c1.4-0.4,3.9-1.3,6.2-2.2s5.4-2.6,7.3-3.6c1.3-0.7,2.2-1.2,3.1-1.8
		c0,18.2,0,36.3-0.1,54.5c-0.1,0.1-0.2,0.1-0.3,0.2c-0.4,0.4-1,1-1.4,2.2c-0.4,1.2-0.3,1.2-0.5,4.8c-0.2,3.5-0.1,12.5,0,15.1
		c0.2,2.6,0.2,3.1,0.7,4.4c0.4,1,0.6,1.8,1.4,2c0,27.7,0,55.4,0.1,83c-0.3,1-0.3,1.2-0.4,4.6c-0.2,3.5-0.1,12.5,0,15.1
		c0.1,2.2,0.2,2.9,0.5,3.8c0.1,22.9,0.3,45.7,0.6,68.6c0,16,9.9,31.9,25.3,37.3C-16.4,538,21.1,537.8,57,536.4
		c23.5-1.8,48.1-4.8,68.4-17.5c16.1-11.4,16.6-33.3,16.6-51.2c0.2-16.8,0.3-33.7,0.3-50.5c0.1-0.6,0.1-1.3,0.2-2.4
		c0.2-2.6,0.2-11.6,0.1-15.1c-0.1-2.3-0.1-3.1-0.2-3.7c0-21.6,0-43.1,0-64.7c0-6.4,0-12.8-0.1-19.2c0.8-0.1,1-0.9,1.4-2
		c0.5-1.3,0.5-1.8,0.7-4.4s0.2-11.6,0.1-15.1c-0.2-3.5-0.1-3.6-0.5-4.8c-0.4-1.2-1-1.8-1.4-2.2c-0.1-0.1-0.2-0.2-0.3-0.3
		c0-18.2,0-36.3,0-54.5c0.9,0.6,1.9,1.1,3.2,1.8c2,1.1,5.1,2.7,7.3,3.6c2.3,1,4.7,1.9,6.2,2.2c1.4,0.4,1.7,0.5,2.2,0.4
		c0.6-0.1,0.8-0.2,1.1-0.5c0.2-0.2,0.2-0.5,0.3-0.8C162.4,235.4,162.4,235.4,162.4,235.3L162.4,235.3z M142.3,297.2
		c0,0.7,0,1.4,0,2.2c0-1,0-2.1,0-3.1C142.3,296.6,142.3,296.9,142.3,297.2z M133.5,487.6c0.1,4.7-0.6,10-2.1,12.8
		c-3.6,7-9.1,11.2-16.9,12.8c-2.5,0.5-6.2,1.8-8.2,2.8c-5.9,3-14.5,5.7-17,5.5l-2.4-0.2l2.2-2.3c1.2-1.3,4.7-3.5,7.7-4.8
		c17.5-8,27.7-18.6,33.4-34.8c0.5-1.4,0.6-1.4,1.5-0.1C132.9,480.7,133.5,483.9,133.5,487.6L133.5,487.6z M132.2,235.1
		c0,1.5,0,3.3,0,5.2c0,12.9-0.3,34.3-0.8,56.7l-0.3,16l-9.8,6.2c-5.4,3.4-10.3,6.3-10.9,6.4c-1.1,0.2-1.1,0.2-1.1-4.8
		c0-2.8,0.3-10,0.5-16.1c0.6-17.1,3.4-43.5,6.3-60.2l1.1-6.7l3.3-2.1c1.8-1.2,5-3.4,7.1-4.9s4-2.8,4.3-2.9
		C132.1,228,132.2,230.6,132.2,235.1L132.2,235.1z M131.8,84.8c0,1.2,0,2.6,0,4.2c-0.1,17-1.4,20.1-5.8,13.5
		c-2.5-3.8-17.2-28-22.9-37.8c-4.8-8.3-7.6-11.6-13-15.3c-2.2-1.5-4.4-3.8-5.1-5.1c-1.2-2.4-1.5-6.2-0.6-7.1
		c0.3-0.3,2.4-0.5,4.7-0.5c4.5,0,7.9,1.4,15.8,6.4c6.5,4.1,15.5,12.1,19,16.8c1.8,2.4,4.4,7.1,5.6,10.4
		C131.5,75.5,131.8,76.3,131.8,84.8L131.8,84.8z M130.6,341c0,1.9-0.1,5-0.2,9.7c-1,39.7-1.9,65.5-2.3,65.8c-0.6,0.5-9.7,2-12.4,2
		c-4.3,0-4.1,0.3-4.9-14.4c-0.5-9.9-1.7-47.2-1.7-56.1c0-0.9,1.7-1.8,9.9-5.5c5.4-2.4,10.3-4.6,10.8-4.8
		C130.4,337.6,130.6,337.8,130.6,341L130.6,341z M124.9,440.4c0,0.9,0,1.9-0.1,3.3c-0.4,5.3-2.2,17.9-2.6,18.6
		c-0.9,1.5-3.6-6.2-5.5-15.6c-1.4-7-1.5-7.8-0.8-9.5c0.6-1.6,2.6-1.9,5.6-0.9C123.9,437.1,124.8,437.8,124.9,440.4z M120.6,159.2
		c0,2.3-13.8,64.8-16.7,75.6c-1.9,7.3-6.5,20.7-10.1,29.8c-8.2,20.7-11,31.3-11,41.7c0,8-0.2,8.4-7.2,14.9l-7.2,6.7l-35.6,0l-35.6,0
		l-7-6.6l-7-6.5l-0.7-12.7c-0.6-10-1.9-15.6-6.1-26.4c-10.5-27.1-15.7-44.7-22.6-77.6c-3.9-18.3-7.4-34.8-7.8-36.6
		c-0.6-2.6,0.3-3.8,4.7-6c6.8-3.4,30.3-10.9,41-13.1c23.6-4.8,65.6-4.4,86.2,0.8C97.2,148.2,120.6,156.9,120.6,159.2L120.6,159.2z
		 M113,495.1c0.2,4-3.3,5.2-11.4,9.6C79.4,516.5,60.2,520.1,25,519c-27.6-0.9-38.2-3.2-57.7-12.8c-17-8.4-17.1-8.6-11.2-20.9
		c2.7-5.6,6.3-13.9,8-18.5c1.7-4.6,3.4-8.3,3.7-8.3c0.3,0,5.1,2.3,10.6,5c17.2,8.7,31,11.6,55.1,11.5c24.2-0.1,36.2-2.6,53.6-11.4
		c5.8-2.9,10.6-5.1,10.8-4.8c0.2,0.3,4,8.9,8.5,19.2C110.5,487.2,112.9,492,113,495.1L113,495.1z M-17.3,38.9c0.1,0.6,0,1.3-0.3,2.2
		c-1,4.3-1.5,4.9-6.5,8.6c-5.9,4.3-7.9,6.8-14.1,17.5c-9.2,15.9-22.6,37.2-23.8,38c-2.7,1.6-3.1-0.3-3.3-15
		c-0.1-12.1,0-14.4,1.2-17.7c4-11,11.5-19.8,24-28.1c9.2-6.1,12.5-7.5,17.5-7.6C-19,36.7-17.5,37.2-17.3,38.9L-17.3,38.9z
		 M-21.4,521.2l-2.2,0.2c-2.5,0.3-12-2.8-16.7-5.4c-1.8-1-5.5-2.2-8.3-2.8c-12-2.5-19.4-11.8-19.2-23.9c0-2.4,0.3-5.4,0.6-6.6
		c0.3-1.2,0.9-2.8,1.3-3.6c0.7-1.3,0.8-1.3,1.6,0.8c3.8,9.4,6.9,14.6,11.8,19.6c5.8,5.9,11.3,9.7,21.1,14.5c3.7,1.8,7.5,4.2,8.4,5.3
		L-21.4,521.2z M-43.3,347l-0.1,10.3c-0.1,12.5-1,37-1.8,50.2c-0.4,7.9-0.7,9.8-1.4,10.4c-1.1,0.9-5.6,0.8-11.1-0.3l-4.6-0.9
		l-0.4-2.3c-0.3-2.2-1.1-28.9-1.8-61.2c-0.2-11.2-0.2-15.8,0.2-15.6c0.3,0.1,5.1,2.3,10.7,4.8L-43.3,347L-43.3,347z M-43.5,316.6
		c0,5.5-0.2,9.1-0.7,9.1c-0.7,0-18.9-11.3-20.2-12.5c-0.6-0.6-1-13.7-1.8-70.9l-0.2-15l2.9,2.1c1.6,1.2,5,3.5,7.7,5.2
		c2.9,1.9,4.8,3.5,5,4.2c1.3,5.8,4.2,28,5.6,41.8C-44.2,292.8-43.5,307.4-43.5,316.6L-43.5,316.6z M-49.8,439.8
		c0,2.1-0.6,5.2-1.5,9.3c-2.3,10.3-4.7,15.6-5.4,12.1c-0.7-3.3-1.9-13.1-2.2-17.9l-0.3-5.2l1.7-1c0.9-0.6,2.6-1.2,3.7-1.4
		C-51,435.2-49.7,436.2-49.8,439.8L-49.8,439.8z"/>
</g>
</svg>
