<svg xmlns="http://www.w3.org/2000/svg" viewBox="0 0 2560 2560"><g><path fill="#EEC29D" d="M1279.9 2426.2c273.2-38.4 517.8-215.8 604.1-522.7 163-62.3 269.6-151.8 238.6-332.1-22.9-133-99.6-133-157.1-99.5-4.8-105.5-28.8-311.7-28.8-311.7H623.1s-24 206.2-28.8 311.7c-57.5-33.6-134.3-33.6-157.1 99.5-31 180.3 75.6 269.8 238.6 332.1 86.4 306.9 330.9 484.3 604.1 522.7z"/><path d="M1279.9 2502.9c-3.6 0-7.1-.3-10.7-.7-316-44.4-558.6-245.4-656-540.9-102.8-43-295.4-148.2-251.7-402.9 26.4-153.5 116.4-179 162.4-181.6 8.7-102.7 22.1-219 22.9-225.4 4.5-38.7 37.3-67.9 76.2-67.9h1313.6c39 0 71.7 29.2 76.2 67.9.7 6.4 14.2 122.7 22.9 225.4 46 2.7 136 28.1 162.4 181.6 43.8 254.6-148.8 359.9-251.6 402.9-97.4 295.5-340 496.6-656 540.9-3.5.5-7 .7-10.6.7zm-747-973c-2.9 1.8-13.6 16.5-20.1 54.4-17.4 101.2 8.4 177.8 190.4 247.5 22.7 8.7 39.9 27.5 46.5 50.9 70.8 251.8 268.6 425.3 530.2 465.9 261.6-40.6 459.4-214.1 530.2-465.9 6.6-23.4 23.8-42.3 46.5-50.9 182-69.6 207.8-146.3 190.4-247.5-6.5-38-17.2-52.7-20.5-54.8-3.8.4-12 2.6-22.4 8.7-23.2 13.5-51.8 13.9-75.3 1.1a77.02 77.02 0 0 1-40-63.9c-2.9-64.5-13.4-169.7-20.8-238.5H691.8c-7.4 68.8-17.9 174-20.8 238.5-1.2 26.8-16.4 51.1-40 63.9-23.6 12.8-52.2 12.4-75.4-1.1-10.3-6.1-18.5-8.3-22.7-8.3z"/><circle cx="951.6" cy="1620.6" r="129.5"/><circle cx="1608.6" cy="1620.6" r="129.5"/><path d="M1279.9 1443.1c162.9 0 570.8-67.1 719.5-302.1l24-211 340.2-393.2c-378.8 0-719.3-129.5-954.3-398-95.9-109.6-162.6-109.6-258.5 0-235 268.5-575.5 398-954.3 398L536.6 930l24 211c148.7 235 556.6 302.1 719.5 302.1h-.2z"/><path fill="#828284" d="M1280.2 1059.5c249.5 0 512.9 10.2 721.7 60.5l21.6-190c-201.6-36-494.1-64.7-743.4-64.7-249.4 0-541.9 28.8-743.4 64.7l21.5 189.6c208.8-50.4 472.2-60.2 721.7-60.2h.3z"/><path fill="#FCB215" d="M1279.9 790.5l170.8-148.2V422.8h-341.5v219.5l170.9 148.2z"/></g></svg>