<?xml version="1.0" encoding="utf-8"?>
<!-- Generator: Adobe Illustrator 19.1.0, SVG Export Plug-In . SVG Version: 6.00 Build 0)  -->
<svg version="1.1" id="Capa_1" xmlns="http://www.w3.org/2000/svg" xmlns:xlink="http://www.w3.org/1999/xlink" x="0px" y="0px"
	 viewBox="-232 34 494 494" style="enable-background:new -232 34 494 494;" xml:space="preserve">
<style type="text/css">
	.st0{fill:#FD7D01;}
</style>
<g id="XMLID_390_">
	<path id="XMLID_397_" class="st0" d="M-45.7,111.1c-9.1,0-17.6-2.5-25-6.8c0,0.7-0.2,1.3-0.2,2c0,25.2,20.4,45.6,45.6,45.6
		c25.2,0,45.6-20.4,45.6-45.6c0-0.7-0.2-1.4-0.2-2c-7.4,4.3-15.9,6.8-25,6.8H-45.7z"/>
	<path id="XMLID_394_" class="st0" d="M157.8,160.5c-4.4,0-214.4,0.1-218.8,0.3c-8-0.8-16,3.3-19.6,11.1l-65,142.4
		c-4.5,9.8-0.2,21.3,9.6,25.8c9.7,4.4,21.3,0.2,25.8-9.6l29.5-64.7v44.5H29.9V199.5h127.9c10.8,0,19.5-8.7,19.5-19.5
		C177.3,169.2,168.6,160.5,157.8,160.5z M-8.2,276.1l-13.2,25.2c-0.8,1.4-2.3,2.3-3.9,2.3c-1.6,0-3.1-0.9-3.9-2.4l-13.2-25.2
		c-0.8-1.5-1.1-3.1-1.1-4.7c0.1-10.8,1.2-53.5,9.2-72.5l-6.1-6.1c-1.7-1.7-1.7-4.5,0-6.2l12-12c1.7-1.7,4.5-1.7,6.2,0l12,12
		c0.8,0.8,1.3,1.9,1.3,3.1c0,1.2-0.5,2.3-1.3,3.1l-6.1,6.1c8,18.9,9.1,61.6,9.2,72.5C-7.1,273-7.5,274.6-8.2,276.1z"/>
	<path id="XMLID_393_" class="st0" d="M29.9,326.8c-98.3,0-12,0-110.5,0c0,0-0.1,11.1-0.1,177.8c0,12.9,10.5,23.4,23.4,23.4
		c12.9,0,23.4-10.5,23.4-23.4V365.3h17v139.4c0,12.9,10.5,23.4,23.4,23.4c12.9,0,23.4-10.5,23.4-23.4
		C30,294.2,29.9,343.1,29.9,326.8z"/>
	<path id="XMLID_392_" class="st0" d="M-82.9,56H32.3l6.4-8.8c1.8-2.5,2.1-5.9,0.7-8.7C38,35.7,35.1,34,32,34H-82.6
		c-3.1,0-6,1.8-7.4,4.6c-1.4,2.8-1.2,6.1,0.7,8.7L-82.9,56z"/>
	<path id="XMLID_391_" class="st0" d="M26.6,72.5H-77.2c4.8,12.9,17,22.1,31.5,22.1h40.7C9.6,94.6,21.8,85.4,26.6,72.5z"/>
</g>
</svg>
